# FamiTracker text export 0.4.2

# Song information
TITLE           ""
AUTHOR          ""
COPYRIGHT       ""

# Song comment
COMMENT ""

# Global settings
MACHINE         0
FRAMERATE       0
EXPANSION       0
VIBRATO         1
SPLIT           32

# Macros
MACRO       0   0  -1  -1   0 : 15
MACRO       0   1  -1  -1   0 : 4 6 9 8 7 6 5 4 3 2 1
MACRO       0   2  -1  -1   0 : 8 14 12 10 9 8 7 6 5 4 3 2 0
MACRO       0   3  -1  -1   0 : 7 4 3 2
MACRO       0   4  -1  -1   0 : 3 6 2
MACRO       1   0   0  -1   0 : 0 4 7 0
MACRO       2   0  -1  -1   0 : -8 11 0
MACRO       2   1   0  -1   0 : -10
MACRO       4   0  -1  -1   0 : 2
MACRO       4   1  -1  -1   0 : 3
MACRO       4   2  -1  -1   0 : 1 2
MACRO       4   4  -1  -1   0 : 2 1

# DPCM samples
DPCMDEF   0  1121 "fillerup"
DPCM : 57 55 95 AA 4A 55 55 A5 AA 52 55 55 AD AA 55 55 55 AB 5A 55 55 55 A6 AA 54 55 95 AA 4C 55 D5 52
DPCM : AB AA 55 55 B5 9A 69 55 55 A5 96 4A 55 55 A5 AA 52 55 55 B5 AA 56 55 55 AD AA 55 55 55 95 AA 54
DPCM : 55 55 AA AA 54 55 53 B3 AA 55 55 D5 AA A5 55 55 55 A9 AA 52 55 55 AA 52 53 55 4D AB 5A 55 55 B5
DPCM : 6A 56 55 55 55 AA 52 55 55 A5 AA 54 55 53 B5 AA 56 55 55 AB 6A 56 55 55 AA 2A 55 55 99 A9 4A 55
DPCM : 55 D5 AC 6A 56 55 B5 AA 59 55 55 95 A9 4A 55 55 A5 AA 54 55 55 55 AB 6A 55 D5 AC AA 56 55 55 95
DPCM : AA 52 55 65 A9 B2 54 55 55 AD AA 56 55 35 AB 99 55 55 59 A9 AA 52 55 A5 A9 34 4D 55 55 AB 9A 56
DPCM : 55 D5 AA A5 65 65 55 9A 52 53 55 A9 D2 4A 55 A5 2D CB 56 5A 2B B5 35 AC 65 67 C8 54 FD 00 1D EB
DPCM : 43 F0 9C 0F C1 F3 3C 06 E7 71 18 DE C3 71 38 8F C3 70 1E 8E E1 38 1C 87 F3 38 0E 77 79 1C E6 F2
DPCM : 18 CE E5 31 9C C1 53 38 87 C7 70 1E C7 E0 1E 8E E5 3D 1C CB 6B 38 9A C3 70 16 9F E0 24 BE C9 68
DPCM : 3C D9 C9 72 93 9B F4 A2 93 E1 64 33 C9 4D 66 93 C9 4E 92 9B CC 26 97 9D 2C 37 9A 4C 3E 3C 58 7C
DPCM : 70 B0 F8 F0 B0 F0 F0 E1 F1 E1 E3 C3 C3 07 87 8F 0F 0E 9F 0C B2 D2 07 92 CF 07 9A CD 07 9B CD 0F
DPCM : 1A EB 07 1A EE 03 1C FE 02 69 FC 81 C9 FC 83 C4 F6 83 65 FB 81 52 BF 81 62 BB 40 B6 9D 60 B2 5D
DPCM : 30 F9 6E 30 DD 2E B8 3C 36 D8 4E 17 4C 0E 17 4D 07 9F 8C 87 93 C7 C7 C3 E1 E1 C3 E1 F1 C1 F0 F0
DPCM : C9 74 F8 48 3C F8 44 7C 7C 64 5C FC 0C DC 7C 24 3E 7C 0C 1E 3E 14 1E 3D 06 1E 3F 86 0F 3F 8C 1E
DPCM : 3E 8C 1F 3E 0C 1F 1E 0E 0F 1E 0E 0F 1F 0E 0F 1E 1E 0F 1E 1E 1F 1E 1E 1E 1F 1C 1E 0F 0E 8F 07 8E
DPCM : C7 03 C7 C7 83 C7 D5 83 D3 E3 C1 F1 F1 C0 E1 F1 E0 70 79 E0 F0 71 F0 78 76 58 7C 3C 78 3C 3D 18
DPCM : 3D 1E 1C 2E 07 8E C7 03 0F CF 03 E7 E5 83 C3 E7 41 D3 F3 C0 F1 78 60 71 5D 30 7C 3A 70 3C 0F 3C
DPCM : 3E 1D 5C 5E 07 4D 2F 0F 0E 8F 07 C5 55 83 C3 E3 83 C3 E3 C3 E1 F9 C1 F1 F0 F0 F0 78 70 78 3C 38
DPCM : 3C 3C 3C 1C 1E 1C 1F 1F 0E 0F 1F 8F 87 0F 87 C3 0F C3 83 87 C3 83 0F CB 03 1F C7 83 1F 87 0F 0F
DPCM : C7 07 1F 86 0F 3E 0C 0F 7E 08 1F 7C 98 3E FC 10 7D F8 21 F9 F0 83 F8 C1 07 E1 83 1F D0 07 3F 88
DPCM : 1F 7E 50 3E F8 43 FE C0 07 F5 81 1F C8 0F 7C 80 3E F0 83 FC C1 1F F0 07 FC 60 3F E0 07 F9 03 7F
DPCM : 80 1F E0 07 FC 01 FE C0 3F E0 7F F0 03 FC 3E 3C 0C 1E 1F 1E 06 0F 1F 84 87 87 2F 78 07 7E F8 E1
DPCM : 7C E0 8C 1F 9C 07 BC E0 07 EC 03 77 E0 1B F8 01 FE 80 3F C1 8F F0 07 FE F0 E1 D1 F0 50 78 F8 0C
DPCM : 7C C0 3F F0 07 BF C0 0F F8 07 FD C0 A7 E0 03 F8 83 77 80 1F 86 0F EE 07 BE 81 1F 2D 1F 7C 18 7D
DPCM : 50 3B 58 55 6A 59 F0 61 F1 A1 9B C5 2E 55 17 F5 68 E9 68 A9 29 55 55 59 A5 4A 53 55 55 CB A6 55
DPCM : 55 2D 2D 9B 96 55 96 AA 2C 55 55 95 AA 52 55 55 B5 AA 5A 55 55 B5 AA 65 55 55 95 AA 4A 55 55 A5
DPCM : AA 52 55 55 AD AA 56 55 55 AB 6A 55 55 55 A9 2A 55 55 55 AA 2A 55 55 55 AB AA 55 55 B5 AA 6A 55
DPCM : 55 55 AA 2A 55 55 A5 AA 52 55 55 AD AA 5A 55 55 AD AA 55 55 55 A5 AA 52 55 55 A9 AA 54 55 55 AD
DPCM : AA 56 55 B5 AA 5A 55 55 55 A9 AA 54 55 55 AA 2A 55 55 D5 AA 6A 55 55 B5 AA 5A 55 55 95 AA 4A 55
DPCM : 55 A5 AA 52 55 55 B5 AA 5A 55 55 6B 59 55 59 55 A5 26 53 55 55 A9 AA 4A 39 CD AA AA 55 35 AD AC
DPCM : 55 5A 53 55 96 B2 52 95 A5 C6 52 65 65 35 CB 72 56 55 33 9B 59 95 D3 D4 A4 B4 4C 55 A5 46 56 33
DPCM : 33 AD 9A 5A 59 55 B5 6A 55 D5 64 66 2A 53 95 A6 9C 4C 65 35 4D AB A9 5A 4D D3 AA 5A 96 65 65 AA
DPCM : 2C 55 55 9A AA B2 2C 4D 55 6B 5A 55 55 D3 5A 96 95 95 5A AA 52 55 55 69 2A 4D D5 54 AD AA 56 55
DPCM : 55 AB AA 65 55 59 AA 2A 53 55 A5 A9 4A 55 55 D5 AA 5A 55 55 D3 AA 56 55 55 95 A9 52 55 55 A9 2A
DPCM : 4B 55 55 CB AA 5A 55 55 AB 9A 56 55 55 AA 2A 53 55 55 AA 55 55 55 55 55 55 55 55 55 55 55 55 55
DPCM : 55
DPCMDEF   1  1473 "gadzooks"
DPCM : 4B 55 55 55 55 55 55 55 55 AA AA AA 55 55 55 55 55 55 55 55 AB AA 4A 55 55 55 65 56 E6 64 69 6A
DPCM : CA 36 99 CC 66 33 D9 49 4D 5B 36 13 D2 D6 A4 D2 DA 4C 4C 59 1B 79 3F 19 61 6F 60 EF 49 08 7B 25
DPCM : DD 09 59 6B 44 ED 0D 2D 35 A6 77 03 EA 89 F8 6F 40 3D 81 7F 02 FE 03 FC 19 F0 0F F0 27 E0 1F F0
DPCM : 0F E0 1F F0 06 F4 17 FC 01 FD 01 6F C0 3F E0 1D 71 0F BC 21 EF C0 33 F2 0F BC 01 FE C0 0D FC 03
DPCM : 6F E0 0F B8 A1 7F E0 06 FE C0 1B 79 03 37 F4 0D CE C0 17 BC 91 2F 3C A1 5F 78 03 1F 74 46 9F 78
DPCM : 46 1F 70 46 1F 78 C3 1D 3C E3 0E BC E1 07 BC F0 07 5F F0 03 2F F8 81 0F F8 81 17 FC C0 07 FE E0
DPCM : 03 7F F0 03 3F F0 81 1F F8 81 0F FC C0 17 FC C0 07 FE E0 03 7E F0 03 7F E0 09 3F F2 C0 3F F0 C0
DPCM : 3F F0 C0 3F 71 C0 1F 71 E2 1F 78 C0 9F 7C E0 8F 38 E0 8F 3C E0 4F 1C F0 47 1E F8 07 1E F8 27 0E
DPCM : F0 27 4E F4 03 4F F8 03 0F F8 03 2F F8 81 3F FC 81 17 FC 81 17 FC C0 07 7E E0 03 3F F4 81 0F FC
DPCM : C0 0F 7E F0 03 3F F8 81 17 7C E0 07 3F F0 83 1F F0 C1 0F FC E0 07 FC D0 03 3F F8 01 1F FC 81 0F
DPCM : 7C E0 0F 3F E0 83 1F F0 C1 1F F8 C0 0F FC E0 07 7C F0 07 3E F0 03 1F F8 03 1F F8 81 1F FC 80 1F
DPCM : FE C0 07 7E C0 07 3F E0 87 1F F0 83 0F F8 C1 0F F8 E1 07 FC E1 03 7E F0 01 7F F0 80 3F 7C C0 1D
DPCM : 3E E0 0B 9F 70 87 4F B8 C3 27 D8 E1 13 B6 F1 04 5B 7C 82 3D 1E E1 1E CE 70 4D 67 58 C7 71 8C E9
DPCM : 1C C6 39 8E 65 4D 65 99 56 55 55 55 55 D5 B4 2C B5 2C 53 55 55 55 55 55 55 55 55 56 55 55 55 55
DPCM : 55 D5 34 CD AA 54 55 55 55 55 55 55 55 95 56 55 55 55 55 55 55 4D D5 AA 4A 55 55 55 55 55 95 5A
DPCM : 55 A5 5A 55 55 56 55 55 55 AD 2A 55 B5 2A 55 55 55 55 A5 6A 55 55 A5 59 55 55 55 55 B5 AA AA 54
DPCM : 55 B5 52 55 56 69 55 55 A5 A9 56 55 55 55 55 55 AB 6A 2A 55 55 D5 AA 54 55 2A 6B 55 55 55 A9 AA
DPCM : 59 B5 59 2A 55 5A 55 6D 96 49 A5 AA 6A 55 55 55 A5 AA 6A 56 55 55 33 35 55 55 55 55 2D 2B 55 55
DPCM : 96 AA 56 55 55 55 55 55 55 55 55 B5 AA AA CC 54 55 55 55 55 55 55 55 AA 66 56 59 D5 D4 D4 54 55
DPCM : 55 55 55 2B 55 53 55 69 AA B2 69 55 55 55 55 55 55 55 35 B3 AA AA 32 55 55 55 5A 55 55 55 55 65
DPCM : 5A AA 55 56 B5 AA B4 4A 55 D5 54 35 B5 54 55 55 A6 A9 96 65 56 55 55 55 AB 54 A9 D5 CA 52 55 2D
DPCM : 95 95 65 96 A6 5A 2A 5B 99 A5 56 55 96 F4 1A D3 31 8D 65 4D A5 29 97 F2 94 C5 38 E7 31 C6 71 5E
DPCM : 26 31 CE 6D 14 92 F9 5C 63 D8 E7 10 C2 BC 47 48 FF 37 90 FC 66 30 FC 96 04 BE 5B 40 67 1B E1 2D
DPCM : 27 38 DB 09 CE 35 86 73 1D E1 5D 46 38 CF 11 CE 63 92 F3 8C E4 36 93 DD 44 72 5B 49 6E 23 59 67
DPCM : 31 D9 2C 25 CF D4 70 53 99 3A 4B C9 B3 34 75 26 53 C7 71 B8 AC 0C 8F D3 68 53 99 5C 4B C9 65 35
DPCM : D9 AC 4C 9B C3 D4 72 1C 75 2A 93 CD 62 72 D9 58 3C 1D 95 4D 47 E3 C9 D1 74 32 1D 4D 2E 93 95 4D
DPCM : 65 55 55 69 96 55 65 55 53 B5 34 55 CD B2 54 4D 55 55 55 59 96 55 59 95 55 55 55 55 55 55 35 53
DPCM : 35 55 55 55 55 55 55 55 59 55 55 55 55 55 55 55 55 D5 54 D3 54 55 55 55 55 55 55 55 55 55 55 56
DPCM : 55 55 55 55 55 55 55 55 55 55 55 55 55 55 55 A5 AA 5A 55 55 55 55 55 55 55 55 55 55 55 55 55 55
DPCM : 55 55 55 55 55 55 55 55 55 55 55 55 55 55 55 55 55 55 55 55 55 55 55 55 55 55 55 55 55 55 55 55
DPCM : 55 55 55 55 55 55 55 55 55 55 55 55 55 55 55 55 55 55 55 55 55 55 55 55 55 55 55 55 55 55 55 55
DPCM : 55 55 55 55 55 55 55 55 55 55 55 55 55 55 55 55 55 55 A5 56 55 55 55 55 55 55 55 55 55 55 55 55
DPCM : 55 55 55 55 55 55 55 55 55 55 55 55 55 55 55 55 55 55 55 55 55 55 55 55 55 55 55 55 55 55 55 55
DPCM : 55 55 55 55 55 35 55 55 55 55 55 55 65 95 56 A5 55 55 55 55 55 55 55 55 4B 55 D5 54 55 95 55 95
DPCM : 66 56 95 56 55 59 55 55 55 2D D5 4A 2D D5 52 A5 55 65 95 55 A5 55 A9 95 56 55 55 55 35 CD 2C D5
DPCM : D2 54 55 53 55 A9 55 AA 55 AA 95 56 5A 55 56 55 D5 4C 2D 55 4B 55 35 55 B5 54 56 99 55 5A 69 55
DPCM : 55 55 4D 2D 55 35 4B 35 2D 55 59 95 D5 58 A5 56 5A 6A 55 5A A5 55 53 55 4D 2D 55 4B D5 52 55 55
DPCM : 69 A9 99 56 A5 65 55 55 55 55 53 55 B5 4C 2B 55 4B 65 55 55 A9 56 A5 95 56 56 95 56 4D D5 D4 52
DPCM : 4D 2D 35 55 55 35 55 95 56 AA 95 6A 55 55 55 55 55 2D D5 4A D5 D2 52 B5 54 55 55 55 A5 5A A9 95
DPCM : 55 55 55 55 D5 54 4B 2D B5 4A D5 52 2D 55 55 69 55 5A A5 56 6A 55 55 2D 55 D5 4A 2D 55 4B 55 55
DPCM : 55 95 65 A9 95 A5 55 56 95 55 55 55 55 53 2D D5 52 2B 55 55 55 55 A5 55 5A 99 55 5A 65 55 55 B5
DPCM : 52 55 55 53 B5 D2 54 55 55 55 95 5A 55 55 56 56 55 55 D5 52 55 B5 4A B5 54 33 55 55 55 65 56 66
DPCM : 69 69 95 56 55 55 55 55 B5 D4 CC D2 52 55 55 55 55 55 55 55 5A 59 55 55 53 55 55 2D 55 2B 55 33
DPCM : 53 4D 55 55 55 65 56 5A A5 55 55 55 55 55 55 55 4B B5 54 53 55 55 55 55 55 55 55 59 95 55 59 55
DPCM : 55 55 55 4D AD C6 54 2D D5 54 55 55 59 95 95 95 56 55 55 55 55 2D D5 D4 4A 2B 35 55 35 55 55 55
DPCM : 59 55 95 55 65 55 55 55 55 55 35 B5 34 35 D5 54 4D 55 55 59 59 59 55 55 55 55 55 55 55 55 55 55
DPCM : 55
DPCMDEF   2   881 "heyou2"
DPCM : A5 AA AA 55 55 55 55 55 55 55 D5 AA AA AA AA 54 55 55 55 55 55 55 55 55 55 55 55 55 55 55 55 55
DPCM : 55 55 CD AC AA 2A 55 55 55 55 55 55 95 55 99 59 65 96 55 56 55 55 4D D5 34 D3 4C AD CC 4C 35 55
DPCM : 55 55 66 99 19 67 66 29 6B 66 59 65 95 75 D4 34 4D B3 34 B3 C6 9C AC 18 6E 75 32 65 E2 0D F9 29
DPCM : 03 F3 0E EC DF 00 FE 03 F8 3F 80 7F 00 FE 03 F0 1F E0 4F 20 3F 46 1F C3 76 88 3F 82 FD 10 7F 82
DPCM : ED 10 3F 86 F9 10 3F C3 6C 98 1F 61 3C 8E CF 30 1E E3 63 8C C7 F1 19 C6 63 7C 8C 71 1C 1F 63 0C
DPCM : C7 CF 18 C3 71 33 C6 71 DC 8C 33 1D 67 E6 8C C3 99 31 E6 62 67 8C 39 99 39 67 4C E6 CC 19 93 39
DPCM : 63 C6 E5 CE 98 71 98 33 67 1C 66 C6 58 D7 99 31 C3 36 33 C6 B2 EC 8C 99 E6 99 31 96 35 67 CE 30
DPCM : CF 8C 91 A6 99 39 92 B9 67 4C 30 EF CC 11 E6 9D 29 93 9C B3 65 98 35 DB 24 59 9B 19 99 8E 4D D3
DPCM : CC CC 94 CC CE 4C 59 E6 CC B2 64 CD 4D CA D4 D9 24 4D D9 4C 4B DA 4C B2 E4 CD A4 69 DA 64 9B 92
DPCM : 65 B6 34 6D B2 69 C9 32 59 D6 34 59 96 6C D9 94 65 C9 6C 59 D3 64 4D D3 26 73 D2 2C 9B 32 65 D9
DPCM : 94 25 DB E4 0C 5B 66 66 C9 B2 39 C3 96 CD 19 B3 64 CD D8 32 73 52 96 8D 59 72 66 CC D8 31 73 4A
DPCM : 9E 8C 39 73 66 4E CD 9A 31 63 CB C6 8C 39 33 66 EC CC 98 31 67 C6 C6 9C 19 33 37 E6 CC 98 B9 23
DPCM : 63 CE 8C 99 39 33 66 EC D8 19 31 67 C6 CC 9C 39 33 66 CE 98 99 33 67 46 CE 19 93 33 E6 4C CC 39
DPCM : 63 63 CE 8C 99 71 66 65 CC B9 31 63 CE AC C8 79 66 64 EC B9 30 61 CF 94 C8 7B 26 22 FD 99 10 F5
DPCM : CF 90 A8 7F 06 C5 FC 13 14 E6 CF 84 98 7F 06 C4 FC 33 20 EE 9F 01 F0 FF 0C 80 DF 67 90 78 7F 02
DPCM : C4 F7 33 40 3E 1F 03 E2 FB 11 20 7F 1F 41 F2 F3 13 60 BE 2F 02 E6 E7 65 C0 FC B8 08 3A 1F 37 02
DPCM : EE C6 8D 89 B3 33 47 C6 CD A9 65 C3 C6 F4 64 C1 D3 B2 45 C3 C5 95 8D 86 9B 31 37 13 76 4E EE 0C
DPCM : 99 39 33 67 C6 CC 85 5D 49 F2 B4 98 3D 34 6C 6C D8 3C 36 6C 6C 4E FC B0 70 F1 69 F0 C3 45 59 CB
DPCM : 06 BE 26 69 69 D3 84 D7 92 B4 B1 4D 43 DB 36 61 65 5B 86 DC 9B 24 59 6B 1A D4 DE C8 90 B3 65 05
DPCM : CD 5F 92 64 7D 59 48 FA 3B 22 E4 ED 49 11 F6 F6 08 92 B3 27 45 CC EF 8A 04 BD 7D 50 D2 D6 DB 20
DPCM : 25 6F 4F 88 B2 F5 72 D0 90 B7 25 45 69 5B 6D B0 25 67 4D 8D 9A B6 72 83 0D 3D 6B 52 D6 D4 D4 B4
DPCM : 61 4A 5E DA 98 34 67 65 4D 8B 96 BC B4 31 4D 4B 4B AB 6A D1 94 93 35 55 69 69 59 59 56 59 92 97
DPCM : 35 55 65 55 4D 2B AB C6 B4 B4 31 2B 55 55 55 55 55 55 95 65 69 59 56 56 56 55 35 35 35 CB 26 CB
DPCM : D4 B2 34 35 55 55 55 55 55 55 65 96 AC 95 55 65 55 55 D5 D4 B4 34 6B 26 4D 4D 53 53 56 55 55 55
DPCM : 69 59 56 56 99 A6 65 55 55 55 55 B5 B4 2C 2D 4D 2B 33 4D 55 55 55 96 A5 66 69 6A 5A 55 55 95 65
DPCM : 55 D3 B4 B4 2C 4D 4B 53 55 55 55 55 65 59 5A 96 95 A5 69 55 55 55 55 55 55 55 55 55 B5 AA 54 55
DPCM : 55 55 55 55 55 55 55 A9 AA 6A 55 55 55 55 55 55 55 B5 AA AA B2 4A 55 55 55 55 55 55 55 95 59 59
DPCM : 56 55 55 55 55 55 55 55 55 55 55 AD 55 55 55 55 55
DPCMDEF   3  1073 "gasbell"
DPCM : 55 55 55 55 D5 D4 52 4A A9 B5 D2 8B C5 47 C6 16 2F 33 1D 1D 3C DC 74 74 72 F0 D1 D1 C1 C9 C5 47
DPCM : 47 23 17 97 1B 1D 9C 5C 5E 34 3A B9 F0 B8 D8 E8 E4 62 63 C3 A3 93 8B 8D 0E 8F 4E 3E 34 3A BC 78
DPCM : F8 E0 E0 63 E3 E1 83 93 8B 87 07 8F 1E 1E 1E 1E 3C 7C 78 78 78 F0 E8 E1 E2 E1 C3 C1 C3 8B 87 0F
DPCM : 1D 1E 1E 1E 2E 7C 38 F4 78 F0 F0 F0 F0 E1 E1 83 83 8F 87 07 0F 4F 2E 1E 1E 3C 7C 78 78 E8 F0 F0
DPCM : E1 E1 C1 C3 8B 87 87 26 6D 0E 5E 9A 36 7C 78 78 F0 F0 F0 F0 E1 C1 C3 C3 C3 87 07 0F 1F 1E 1E 1E
DPCM : 3C 7C 78 78 F0 F0 F0 F0 E2 E1 C1 87 87 87 87 0F 0D 1E 5D 5A 36 3C 3C 7C 78 F0 E8 F0 E1 E1 C1 C3
DPCM : 87 87 87 0E 0F 1F 1E 3C 3C 3C 7C 78 78 78 F0 F0 E1 E1 A1 87 C3 93 07 0F 1F 2E 1E 1E 1E 3C 7C 78
DPCM : 78 78 F0 F0 E1 C1 C3 C3 87 87 07 0F 1F 1E 1E 3C 3C 7C 78 78 78 F0 F0 E1 E1 C1 C3 87 87 07 0F 0F
DPCM : 1F 1E 1E 1E 3C 3C 7C 78 78 F0 F0 E1 E1 E1 C1 C3 87 87 07 0F 0F 1F 1E 3C 3C 3C 7C 78 F0 78 F0 E1
DPCM : E1 E1 C1 87 87 07 0F 0F 0F 1F 1E 2E 3C 3A 3C 7A F0 E8 F0 F0 E1 C1 C3 C3 87 87 07 0F 4F 2E 1E 1E
DPCM : 3C 3C 7C 78 78 F0 E4 F0 E1 C1 C3 C3 87 87 0E 0F 0F 1F 1E 1E 3C 7C 78 F0 78 F0 F0 E1 C1 C3 C3 6B
DPCM : 2B 2D B5 50 4A ED D4 62 E1 B1 B1 CB C9 CC CC 46 23 37 33 1D 59 5C 5C 6C 76 70 71 B1 99 D9 C8 C5
DPCM : E6 46 23 97 0B 1F 4D 4D 5C 2E 76 32 71 39 D9 D8 E8 C4 66 47 63 93 93 8D 4D 4E 56 2E 36 3A B9 58
DPCM : D9 D8 E4 E4 62 E5 52 A3 C3 8B 87 4E 8D 0D 8F 1E 2E 56 3A B5 B8 D8 58 E9 D4 E8 C1 63 C5 C3 87 93
DPCM : 8B 1D 8E 5C 4E 36 3A 39 59 D9 D8 E8 E4 62 E5 62 A3 93 4B 96 36 55 36 2D 35 3A 3C 3A D9 D8 E8 E4
DPCM : 68 F1 A1 93 C3 85 97 8B 07 2F 1D 1E 1D 5A AD 54 7A 74 68 F1 D2 D1 C1 C3 C3 C3 87 0B 0F 0F 1F 1E
DPCM : 4E 36 3A 3C 5A B6 64 E9 64 E9 C1 63 93 A3 95 93 0D 8F 4D 56 36 3C 36 39 39 B9 F0 F0 F0 61 A3 93
DPCM : C3 87 0D 8F 0B 0F 8F 1E 36 2E 3C 3C 7A 58 E9 F0 E4 62 C3 A3 93 93 8B 8D 8D 4E 4E 36 36 3A 3C 79
DPCM : 78 D8 F0 F0 E2 A1 C3 C3 93 8B 8D 4E 0E 17 1F 1E 1E 5C 3C 7C 78 F0 F0 E1 E1 E1 C1 C3 A3 A3 87 07
DPCM : 8F 8D 4E 2E 2E 36 3A BA 78 D8 D8 E8 E4 E2 61 C3 A3 93 8B 87 0B 8F 4E 2E 36 3C 3A 3A 79 B8 D8 F0
DPCM : E1 E4 61 63 93 93 93 8D 8D 8D 4D 4E 2E 36 36 3A B9 D8 D8 E8 E4 E2 62 A3 93 93 8D 8D 8D 4E 2E 2E
DPCM : 36 36 39 B9 D8 E8 E8 E4 E2 61 63 93 93 8B 8B 8D 8D 0E 2F 1E 1E 3C 3C 7C 78 E8 F0 E8 E1 E2 62 63
DPCM : A3 93 8B 8D 8D 8D 4E 2E 36 36 3A 39 B9 D8 D8 E8 E4 64 63 63 93 93 8B 8D 4D 4E 2E 2E 36 3A 39 D9
DPCM : D8 D8 E8 E4 62 63 53 93 93 8D 8D 4B 8E 4E 2E 2E 2E 3A 3A 79 B8 F0 D8 D4 D4 64 65 63 53 93 93 93
DPCM : 8D 4D 4E 2E 36 36 3A B9 D8 D8 D8 E4 E4 64 63 63 A3 93 93 8D 8D 4D 4E 2E 36 3A 39 39 D9 D8 E4 E4
DPCM : E4 62 63 A3 93 93 8D 8D 4E 4E 36 36 36 3A B9 D8 D8 D4 E4 64 63 63 53 93 93 93 8D 8D 4D 4E 2E 36
DPCM : 36 36 39 D9 D8 D8 D8 E4 64 63 63 63 93 93 8B 8D 8D 4E 2E 36 36 36 39 39 D9 D8 D4 E4 64 63 63 93
DPCM : 93 8B 8D 8D 4E 4E 2E 36 36 39 39 D9 D8 D8 E4 E4 64 63 A3 93 93 8B 8D 8D 4E 4E 36 36 36 39 39 D9
DPCM : D8 D4 E4 E4 64 63 63 93 93 8B 8D 4D 4E 4E 36 36 36 39 39 59 D9 D8 D4 E4 64 63 63 93 93 8B 8D 4D
DPCM : 4E 4E 36 36 36 39 39 D9 D8 D8 E4 E4 64 63 63 93 93 8D 8D 4D 4E 56 36 36 35 35 59 D9 D8 D8 E4 64
DPCM : 65 63 A3 93 93 8D 8D 4D 4E 56 36 35 35 39 59 59 D9 D4 E4 E4 64 63 93 93 93 8D 8D 4D 4E 56 56 36
DPCM : 35 35 59 D9 D8 D4 E4 64 63 63 93 93 93 8D 4D 4D 4E 56 36 36 35 39 59 D9 D8 D4 E4 64 63 63 93 93
DPCM : 95 8D 4D 4D 4E 56 36 35 35 35 59 D9 D8 D4 E4 64 63 53 93 93 95 4D 4D 4D 55 56 56 35 35 35 59 D9
DPCM : D8 D4 E4 64 63 53 93 93 95 4D D5 55 55 55 55 55 55
DPCMDEF   4   337 "quack"
DPCM : 55 55 55 55 55 55 55 55 55 55 55 55 55 55 55 55 55 55 55 55 55 55 55 55 55 55 2B D9 C8 07 3E F1
DPCM : 83 1F 78 E0 C3 07 3E 7C F8 03 0F 3E 78 F0 E0 E3 0F 1E 3C 78 E0 E5 87 1F 3C 3C 58 C0 C7 C7 0F 0E
DPCM : 1E ED E0 E1 F1 0E 87 87 74 78 78 BE C3 E0 34 0F 86 B6 6D 3C C4 E1 C1 B4 E3 8B 87 38 2C 98 F6 7D
DPCM : 3C C1 69 92 E4 ED E3 08 C7 13 A4 EF CF 22 9C 65 18 B6 9F 65 18 4B 30 ED 1D 43 1C DB 3C ED 9E 41
DPCM : 1C D3 1C E1 8E 24 8E 79 9E 74 67 90 C7 1C C3 BE 33 CC 61 86 31 FF 18 E2 B8 61 D8 7F 86 38 6D 98
DPCM : 74 8F 21 4E 3B 46 B9 C7 10 B3 8D 93 EE B1 E4 6C C3 A4 7B 26 38 CB 38 D9 9E 01 CE 34 4E BC CF 14
DPCM : 27 99 25 FB 33 C1 C8 26 C9 FE 4C 70 B2 48 B3 3F 13 9C 2C B3 EC 8F 09 69 58 69 F5 9E 90 B4 9C 51
DPCM : 8D 35 8B 39 E5 34 65 99 65 55 55 55 55 D5 54 35 47 4D 35 35 55 55 55 53 4D 55 55 55 55 55 55 55
DPCM : 55 55 55 55 55 55 55 55 55 55 55 55 55 55 55 55 55 55 35 55 55 55 55 55 95 73 18 E7 54 E5 34 5C
DPCM : E3 34 55 35 59 4D D5 54 55 56 55 55 55 55 55 55 55 55 55 55 55 55 55 55 55 55 55 55 55 55 55 55
DPCM : 55 55 55 55 55 55 55 55 55 55 55 55 55 55 55 55 55
DPCMDEF   5  1073 "haha2"
DPCM : 55 55 55 55 55 55 55 55 55 55 55 55 55 55 55 55 55 55 55 55 55 55 55 55 55 55 55 55 55 55 55 55
DPCM : 55 55 55 55 55 55 55 55 55 55 55 55 55 55 55 55 55 55 55 55 55 55 55 55 55 55 55 55 55 65 55 59
DPCM : 39 59 E9 61 8D 53 39 8D 53 DC E0 71 96 D9 58 C5 D9 64 A5 07 2F F9 70 E8 C1 E3 14 9E F1 38 0E 3E
DPCM : 6C C3 E3 30 3D 59 0D 3E 3C 99 16 8F F2 E2 3D C0 0F E2 E1 FF 03 1F C0 83 07 FF 80 07 ED E1 C3 7F
DPCM : F0 00 3C 7C F8 07 2F C8 83 87 7F E0 03 3E 7C F8 03 1F F0 C1 83 3F F4 80 0F 1E FC 81 0F 78 E1 C1
DPCM : 1F 7A D0 0F 1F FE 83 07 F4 F0 E0 3F F4 10 0E 1E FC 1E 3C 84 87 87 1F 7E 78 08 06 83 CF 2F C3 C3
DPCM : 81 4D 3E 1F 17 78 30 BC 56 9E FC 08 87 C5 C3 87 0F 1E 2D 1B 6C D1 D2 C7 E2 C3 D8 B4 94 63 93 1B
DPCM : B5 C9 74 38 95 63 E5 D1 54 53 D3 58 4E 4E 56 D5 52 35 55 56 4D 4E E5 52 55 59 35 55 53 55 D3 52
DPCM : 55 B9 54 55 4D 55 55 55 55 53 55 55 55 55 55 D5 54 4D 55 55 55 55 55 55 35 55 55 55 55 55 55 55
DPCM : 55 55 55 55 55 55 D5 52 55 55 55 55 55 55 55 55 55 55 55 55 55 D5 54 55 55 55 55 55 55 55 55 55
DPCM : 55 55 55 55 55 55 55 55 55 55 55 55 55 55 55 55 55 55 55 55 55 55 55 55 55 55 55 55 55 55 55 55
DPCM : 55 55 55 55 55 55 55 55 55 55 55 55 55 55 55 55 55 55 55 55 55 55 55 55 55 55 55 55 55 55 55 55
DPCM : 55 55 55 55 55 55 55 55 55 55 55 55 55 55 55 55 55 55 55 55 55 55 55 55 55 55 55 55 55 55 55 55
DPCM : 55 55 55 55 55 55 55 55 55 55 55 55 55 55 55 55 55 55 55 55 55 55 55 55 55 55 55 55 55 55 55 55
DPCM : 55 55 55 55 55 55 55 55 55 55 55 55 55 55 55 55 55 55 55 55 55 35 55 53 53 55 4D 55 D5 64 65 47
DPCM : 1E E5 D1 54 39 8E 55 4D D5 58 C3 63 8D 4E B6 38 95 53 4D 56 C3 53 55 D9 54 8B 4D 4E 56 95 55 B5
DPCM : 54 16 A7 B4 C6 E7 56 80 0F FC C0 87 9F F7 C0 07 78 E0 83 1F EF 83 07 F0 81 0F 7E FC 81 0F E0 03
DPCM : 1F FE D0 07 1F C0 07 3E F8 F1 1F 1E 80 0F 7C F0 E3 1F BA 84 0F 7C E0 E3 17 3A 00 0F FA D8 E3 7F
DPCM : 74 09 1E F0 C1 C7 F3 E8 10 3C E8 83 0F FD F0 49 7C 90 0B 3E FE 43 93 F0 41 16 3E FC 87 2E E0 83
DPCM : 2D 7C 3A 0F 9A C4 07 A7 D1 E9 3C 68 12 1F 9C C6 A7 FF A0 49 78 F0 10 3E BE 0F 1D C2 83 0F F4 F1
DPCM : D9 D0 24 3C F8 C1 06 3F 1F 3E 81 0F 2E F0 C9 8F 07 5F C0 07 3F 5C E0 E7 0B 1D E0 83 3F 5C E0 A7
DPCM : 0F 1E C0 07 7F 38 D8 8F 3F 78 00 1F FC E1 00 3F FF E0 01 7C F0 07 07 FA FC 07 0F E0 83 1F 38 D0
DPCM : C7 6F E0 01 3E FC 87 07 3C FC 07 3C C0 07 7F F0 E0 0F FB 80 0F F8 C1 0F 3C F0 C3 3F E0 03 7E F0
DPCM : 03 0F FC F0 0F F0 81 1F F8 C1 07 3F 7C 2A F8 80 1F FC C0 83 1F 6E 13 7C C8 0F 7E E0 81 1F 7E 11
DPCM : 7C E0 07 7F E0 C1 0F B7 09 3C E4 07 3F F0 E0 07 BF 04 7E E0 07 1F F8 E0 0F AF 0C 3E E0 03 7F F8
DPCM : C0 0F BB 04 3E F0 07 5F E0 C1 0F 3F 05 7E E0 0F 3E F0 81 1F 9E 03 FC C1 0F 7C E0 83 3D D6 33 F0
DPCM : 03 3E F8 83 0F F6 F0 98 81 2F F8 C1 0F 1E E6 E1 71 07 3E E0 07 7E F0 D1 0E 1E 17 7C 81 1F F8 C1
DPCM : 43 3F 3C 66 E0 07 7E D0 07 17 FB D0 C3 03 3F F0 41 3F F8 60 0F 1F 2E F0 03 3F F0 85 83 7D F0 B1
DPCM : 05 7E E0 87 D5 70 F1 89 2E F5 D0 68 3C 96 0D 1E 3E D9 43 C7 E2 64 35 55 C9 87 33 39 D5 51 55 65
DPCM : 55 95 56 59 55 87 CB B4 D4 54 55 55 55 56 55 D3 74 D4 61 59 1A 5D 5A 59 55 4D B5 F0 0C 0F 57 39
DPCM : 59 95 8B 4D 4E 55 E9 58 0E 4F B5 54 8D 47 2D 55 55 55 55 55 55 55 55 55 55 59 55 95 55 55 55 55
DPCM : 55 55 55 55 55 55 55 55 55 55 55 55 55 55 55 55 55 55 55 55 55 55 55 55 55 55 55 55 55 55 55 55
DPCM : 55 55 55 55 55 55 55 55 55 55 55 55 55 55 55 55 55 55 55 55 55 55 55 55 55 55 55 55 55 55 55 55
DPCM : 55 55 55 55 55 55 55 55 55 55 55 55 55 55 55 55 55
DPCMDEF   6  1089 "nooo"
DPCM : 55 55 55 55 55 55 55 55 55 55 55 55 55 55 B5 2A 45 DD 2E 11 C9 F7 4A 88 EC 6F 21 92 FA AF 00 43
DPCM : FF 0B 48 D2 FF 05 50 F4 FF 00 24 F9 7F 00 85 FF 0F 20 D1 FF 03 A0 F8 7F 01 24 FF 37 00 FC 3F 81
DPCM : CC FC 04 72 FA 09 CE F4 89 9C F0 13 37 E0 07 6E C8 0F 5C F8 0F 3E F0 07 3E F0 07 3C F0 0F 3C E0
DPCM : 0F 7D E0 0F 75 E0 0F 75 E0 1F 76 F0 07 3E F0 07 3F F0 07 1F F8 83 1F F8 83 1F FC C1 0F FE E0 07
DPCM : FF A0 07 7F C0 83 3F E0 C1 1F F8 60 0F 7C F0 07 3A F8 81 1E 7C A0 03 1F E0 E0 07 3A F8 C0 0F 3F
DPCM : D0 C3 07 7C F0 81 1E 3E F0 C3 0F 74 F8 81 0E 3F D0 E3 07 3A FC 40 8F 1F E8 F0 03 1F 3E E0 C3 07
DPCM : 7E F8 40 87 1F F8 F0 01 1F 3E F0 C3 07 7E FC 40 87 1F E8 E1 03 3D 7C E0 87 1F E8 E1 07 3A F8 D0
DPCM : 0F 3E F0 83 1F E8 E1 07 7A F0 03 3F FC 40 0F 7E A0 07 3F F0 81 0F FC C0 07 7E F0 03 3F F8 81 1F
DPCM : FC C0 0F 7E A0 07 3F D0 83 1F F8 C1 0F F4 E0 07 7A F0 03 3D F8 81 1E FC C0 0F 7E E0 87 1F F8 C1
DPCM : 0F F4 F0 03 7F F8 81 1E 7E A0 07 3F D0 C3 0F F4 F0 03 3D F8 81 1F 7E A0 07 1F E8 C3 0F FC F0 03
DPCM : 3D F8 80 1F 7E A0 07 1F F8 C1 0F F4 F0 03 3D F8 81 1E FC C0 0F 3F D0 83 1F E8 C1 0F FC F0 03 3C
DPCM : F8 81 1F FC C0 07 3F D0 87 1F F8 E0 07 7A F0 03 1F F8 C0 1F 7E A0 0F 3F E0 C1 0F F4 E1 07 7E F0
DPCM : 03 1E FC 40 1F 7E E0 03 3F E0 C3 0F FC E0 07 3E F0 03 1F FC 40 1F 7E A0 0F 3F E0 83 1F F8 E0 07
DPCM : FA F0 03 7E F8 01 1F FC C0 07 3F E0 83 1F F0 C1 0F FC E0 07 3E F8 01 1F FC 80 1F 7E C0 07 3F E0
DPCM : 87 1F F0 C1 0F F8 E1 07 7C F0 03 7E F8 01 3F FC 80 1F FC 80 0F 7E C0 0F 3F E0 83 1F F0 C3 1F F0
DPCM : C0 0F F8 E1 07 7C F0 03 7E F8 01 1F FC 80 1F FE 80 0F 7E C0 07 3F E0 83 1F F0 C3 1F F0 C1 0F F8
DPCM : E1 07 7C F0 03 7E F8 03 3E F8 01 1F FC 80 1F 7E C0 0F 3F C0 87 1F F0 C3 0F F0 E1 07 FC F0 03 3C
DPCM : FC 01 3E FC 80 1F 7E 80 0F 3F E0 87 3F E0 83 1F F0 C1 0F F8 C1 0F F8 E0 0F F8 E1 07 FC E0 07 7C
DPCM : F0 07 7C F0 03 7E F0 03 7E F8 03 7C F8 01 7E F8 01 3E FC 01 3F FC 01 3E FC 00 3F FC 00 1F FC 80
DPCM : 1F FE 00 1F FE 00 1F FE 00 1F FE 00 1F FE 00 1F FC 80 3F FC 00 3F FC 01 3E FC 01 3E F8 01 3E FC
DPCM : 01 3E FC 01 3F F8 01 3E FC 01 7E F8 01 3E FC 01 7E F8 01 7E F8 01 7E F8 01 7E F8 01 7E F8 01 7E
DPCM : F8 03 7C F8 03 7C F8 03 FC F0 03 F4 F0 07 F8 F0 07 F8 E1 0F F0 E1 0F F0 E1 0F F0 C3 0F F0 C3 0F
DPCM : F0 C3 1F E0 83 1F E0 87 1F E0 87 1F E0 87 3F C0 A5 3F C0 0F 3F C0 0F 3F C0 0F 7F 00 1F 7E 80 1F
DPCM : FE 00 1F FD 00 3D FD 00 3D FD 01 7A F8 01 7E F8 03 F4 F4 03 F8 E1 07 F8 E1 0F D0 D3 1F A0 87 3F
DPCM : 40 4F 7F 80 1E FE 00 3F FC 01 7C F8 03 F4 F4 07 F0 E1 0F D0 D3 1E A0 A7 3F 40 4F FB 00 3E FD 01
DPCM : 7C F8 03 F4 B1 0F E0 D3 1F 80 4F 3F 40 1F FE 00 3E ED 01 FA F4 03 78 CD 0F D0 C7 3E 40 4F FB 00
DPCM : 3E ED 01 FA F4 03 F4 49 1F E0 47 3F 80 1F FD 00 7E F4 03 F8 D1 0F E0 47 3F 80 1F FD 00 BE B4 07
DPCM : F8 D1 1E A0 4F 7B 80 3E F5 01 FA D1 0F E0 47 7B 80 3E F5 01 FA D1 0B 68 4F 7B 80 3E F5 01 EC D3
DPCM : 1E A0 4F BD 02 F6 D4 07 E8 47 7D 80 BE D4 07 E8 47 7D 80 7E D4 07 E8 47 7D 80 7E D4 17 50 4F F5
DPCM : 01 F5 61 BB 40 7D D4 07 D4 47 F5 01 F5 51 BD 40 7D 54 1F 50 1F 55 0F E4 4D D5 03 D9 53 F5 10 F9
DPCM : 51 7D 40 BE 94 3D 84 3B 55 2F 50 37 55 4F D0 36 55 0F 61 B7 D4 96 D0 35 D5 96 E0 56 55 97 44 57
DPCM : 55 97 42 57 55 5D 12 5D 55 B5 4A 6C 55 75 29 71 55 D5 2A D1 56 55 AB 14 57 55 AD 4A 6C 55 D5 2A
DPCM : A9 55 55 AB 92 5A 55 B5 4A A9 55 55 2B 95 5A 55 B5 4A 55 55 55 2D 55 A5 56 55 4B 55 55 55 AD 52
DPCM : 55 65 55 55 55 55 55 55 2B 55 55 55 55 55 55 55 55 55 55 55 55 55 55 55 55 55 55 55 55 55 55 55
DPCM : 55

# Instruments
INST2A03   0     0  -1  -1  -1  -1 "Samples"
KEYDPCM   0   3   0     0   8   0     0  -1
KEYDPCM   0   3   2     1   8   0     0  -1
KEYDPCM   0   3   4     2   8   0     0  -1
KEYDPCM   0   3   7     4   6   0     0  -1
KEYDPCM   0   3   9     3   6   0     0  -1
KEYDPCM   0   3  10     6   4   0     0  -1
KEYDPCM   0   3  11     5   5   0     0  -1
INST2A03   1     1  -1  -1  -1  -1 "Accent(sustained)"
INST2A03   2     1  -1  -1  -1   1 "Vocal(susatined)"
INST2A03   3     2  -1   0  -1   2 "SpacePedal"
INST2A03   4     3   0  -1  -1  -1 "AlienBass"
INST2A03   5     4  -1  -1  -1  -1 "AlienVoice"
INST2A03   6     5  -1  -1  -1  -1 "VictoryTrumpet"
INST2A03   7     6  -1  -1  -1  -1 "New instrument"
KEYDPCM   7   3   0     0   8   0     0  -1
KEYDPCM   7   3   2     1   7   0     0  -1
KEYDPCM   7   3   4     2   9   0     0  -1
KEYDPCM   7   3   6     3  10   0     0  -1
INST2A03   8     1  -1  -1  -1   4 "Bass"
INST2A03   9     4  -1  -1  -1   0 "soft voice"

# Tracks

TRACK  64   7 150 "Title"
COLUMNS : 1 1 1 1 1

ORDER 00 : 00 00 00 00 00

PATTERN 00
ROW 00 : D-3 01 . ... : ... .. . ... : ... .. . ... : ... .. . ... : ... .. . ...
ROW 01 : ... .. . ... : ... .. . ... : ... .. . ... : ... .. . ... : ... .. . ...
ROW 02 : ... .. . ... : ... .. . ... : ... .. . ... : ... .. . ... : ... .. . ...
ROW 03 : ... .. . ... : ... .. . ... : ... .. . ... : ... .. . ... : ... .. . ...
ROW 04 : F-3 01 . ... : F-3 01 . ... : ... .. . ... : ... .. . ... : ... .. . ...
ROW 05 : ... .. . ... : ... .. . ... : ... .. . ... : ... .. . ... : ... .. . ...
ROW 06 : ... .. . ... : ... .. . ... : ... .. . ... : ... .. . ... : ... .. . ...
ROW 07 : ... .. . ... : ... .. . ... : ... .. . ... : ... .. . ... : ... .. . ...
ROW 08 : A-3 01 . ... : C-4 01 . ... : ... .. . ... : ... .. . ... : ... .. . ...
ROW 09 : ... .. . ... : ... .. . ... : ... .. . ... : ... .. . ... : ... .. . ...
ROW 0A : ... .. . ... : ... .. . ... : ... .. . ... : ... .. . ... : ... .. . ...
ROW 0B : ... .. . ... : ... .. . ... : ... .. . ... : ... .. . ... : ... .. . ...
ROW 0C : F-3 01 . ... : ... .. . ... : ... .. . ... : ... .. . ... : ... .. . ...
ROW 0D : ... .. . ... : ... .. . ... : ... .. . ... : ... .. . ... : ... .. . ...
ROW 0E : ... .. . ... : ... .. . ... : ... .. . ... : ... .. . ... : ... .. . ...
ROW 0F : ... .. . ... : ... .. . ... : ... .. . ... : ... .. . ... : ... .. . ...
ROW 10 : G-3 01 . ... : ... .. . ... : ... .. . ... : ... .. . ... : ... .. . ...
ROW 11 : ... .. . ... : ... .. . ... : ... .. . ... : ... .. . ... : ... .. . ...
ROW 12 : ... .. . ... : ... .. . ... : ... .. . ... : ... .. . ... : ... .. . ...
ROW 13 : ... .. . ... : ... .. . ... : ... .. . ... : ... .. . ... : ... .. . ...
ROW 14 : B-3 01 . ... : B-3 01 . ... : ... .. . ... : ... .. . ... : ... .. . ...
ROW 15 : ... .. . ... : ... .. . ... : ... .. . ... : ... .. . ... : ... .. . ...
ROW 16 : ... .. . ... : ... .. . ... : ... .. . ... : ... .. . ... : ... .. . ...
ROW 17 : ... .. . ... : ... .. . ... : ... .. . ... : ... .. . ... : ... .. . ...
ROW 18 : D-4 01 . ... : F-4 01 . ... : ... .. . ... : ... .. . ... : ... .. . ...
ROW 19 : ... .. . ... : ... .. . ... : ... .. . ... : ... .. . ... : ... .. . ...
ROW 1A : ... .. . ... : ... .. . ... : ... .. . ... : ... .. . ... : ... .. . ...
ROW 1B : ... .. . ... : ... .. . ... : ... .. . ... : ... .. . ... : ... .. . ...
ROW 1C : B-3 01 . ... : ... .. . ... : ... .. . ... : ... .. . ... : ... .. . ...
ROW 1D : ... .. . ... : ... .. . ... : ... .. . ... : ... .. . ... : ... .. . ...
ROW 1E : ... .. . ... : ... .. . ... : ... .. . ... : ... .. . ... : ... .. . ...
ROW 1F : ... .. . ... : ... .. . ... : ... .. . ... : ... .. . ... : ... .. . ...
ROW 20 : C-3 01 . ... : ... .. . ... : ... .. . ... : ... .. . ... : ... .. . ...
ROW 21 : ... .. . ... : ... .. . ... : ... .. . ... : ... .. . ... : ... .. . ...
ROW 22 : ... .. . ... : ... .. . ... : ... .. . ... : ... .. . ... : ... .. . ...
ROW 23 : ... .. . ... : ... .. . ... : ... .. . ... : ... .. . ... : ... .. . ...
ROW 24 : E-3 01 . ... : E-3 01 . ... : ... .. . ... : ... .. . ... : ... .. . ...
ROW 25 : ... .. . ... : ... .. . ... : ... .. . ... : ... .. . ... : ... .. . ...
ROW 26 : ... .. . ... : ... .. . ... : ... .. . ... : ... .. . ... : ... .. . ...
ROW 27 : ... .. . ... : ... .. . ... : ... .. . ... : ... .. . ... : ... .. . ...
ROW 28 : G-3 01 . ... : B-3 01 . ... : ... .. . ... : ... .. . ... : ... .. . ...
ROW 29 : ... .. . ... : ... .. . ... : ... .. . ... : ... .. . ... : ... .. . ...
ROW 2A : ... .. . ... : ... .. . ... : ... .. . ... : ... .. . ... : ... .. . ...
ROW 2B : ... .. . ... : ... .. . ... : ... .. . ... : ... .. . ... : ... .. . ...
ROW 2C : E-3 01 . ... : ... .. . ... : ... .. . ... : ... .. . ... : ... .. . ...
ROW 2D : ... .. . ... : ... .. . ... : ... .. . ... : ... .. . ... : ... .. . ...
ROW 2E : ... .. . ... : ... .. . ... : ... .. . ... : ... .. . ... : ... .. . ...
ROW 2F : ... .. . ... : ... .. . ... : ... .. . ... : ... .. . ... : ... .. . ...
ROW 30 : C-3 01 . ... : ... .. . ... : ... .. . ... : ... .. . ... : ... .. . ...
ROW 31 : ... .. . ... : ... .. . ... : ... .. . ... : ... .. . ... : ... .. . ...
ROW 32 : ... .. . ... : ... .. . ... : ... .. . ... : ... .. . ... : ... .. . ...
ROW 33 : ... .. . ... : ... .. . ... : ... .. . ... : ... .. . ... : ... .. . ...
ROW 34 : E-3 01 . ... : E-3 01 . ... : ... .. . ... : ... .. . ... : ... .. . ...
ROW 35 : ... .. . ... : ... .. . ... : ... .. . ... : ... .. . ... : ... .. . ...
ROW 36 : ... .. . ... : ... .. . ... : ... .. . ... : ... .. . ... : ... .. . ...
ROW 37 : ... .. . ... : ... .. . ... : ... .. . ... : ... .. . ... : ... .. . ...
ROW 38 : G-3 01 . ... : B-3 01 . ... : ... .. . ... : ... .. . ... : ... .. . ...
ROW 39 : ... .. . ... : ... .. . ... : ... .. . ... : ... .. . ... : ... .. . ...
ROW 3A : ... .. . ... : ... .. . ... : ... .. . ... : ... .. . ... : ... .. . ...
ROW 3B : ... .. . ... : ... .. . ... : ... .. . ... : ... .. . ... : ... .. . ...
ROW 3C : E-3 01 . ... : ... .. . ... : ... .. . ... : ... .. . ... : ... .. . ...
ROW 3D : ... .. . ... : ... .. . ... : ... .. . ... : ... .. . ... : ... .. . ...
ROW 3E : ... .. . ... : ... .. . ... : ... .. . ... : ... .. . ... : ... .. . ...
ROW 3F : ... .. . ... : ... .. . ... : ... .. . ... : ... .. . ... : ... .. . ...

TRACK  64   6 150 "IntroCutscene"
COLUMNS : 1 1 1 1 1

ORDER 00 : 00 00 00 00 00

PATTERN 00
ROW 00 : C-3 08 . ... : ... .. . ... : A-3 01 . ... : ... .. . ... : ... .. . ...
ROW 01 : ... .. . ... : ... .. . ... : ... .. . ... : ... .. . ... : ... .. . ...
ROW 02 : ... .. . ... : ... .. . ... : G-3 01 . ... : ... .. . ... : ... .. . ...
ROW 03 : ... .. . ... : ... .. . ... : ... .. . ... : ... .. . ... : ... .. . ...
ROW 04 : F-3 08 . ... : ... .. . ... : ... .. . ... : ... .. . ... : ... .. . ...
ROW 05 : ... .. . ... : ... .. . ... : ... .. . ... : ... .. . ... : ... .. . ...
ROW 06 : ... .. . ... : ... .. . ... : ... .. . ... : ... .. . ... : ... .. . ...
ROW 07 : ... .. . ... : ... .. . ... : ... .. . ... : ... .. . ... : ... .. . ...
ROW 08 : G-3 08 . ... : ... .. . ... : ... .. . ... : ... .. . ... : ... .. . ...
ROW 09 : ... .. . ... : ... .. . ... : ... .. . ... : ... .. . ... : ... .. . ...
ROW 0A : ... .. . ... : ... .. . ... : ... .. . ... : ... .. . ... : ... .. . ...
ROW 0B : ... .. . ... : ... .. . ... : ... .. . ... : ... .. . ... : ... .. . ...
ROW 0C : D-3 08 . ... : ... .. . ... : D-3 01 . ... : ... .. . ... : ... .. . ...
ROW 0D : ... .. . ... : ... .. . ... : ... .. . ... : ... .. . ... : ... .. . ...
ROW 0E : ... .. . ... : ... .. . ... : C-3 01 . ... : ... .. . ... : ... .. . ...
ROW 0F : ... .. . ... : ... .. . ... : ... .. . ... : ... .. . ... : ... .. . ...
ROW 10 : C-3 08 . ... : ... .. . ... : ... .. . ... : ... .. . ... : ... .. . ...
ROW 11 : ... .. . ... : ... .. . ... : ... .. . ... : ... .. . ... : ... .. . ...
ROW 12 : ... .. . ... : ... .. . ... : ... .. . ... : ... .. . ... : ... .. . ...
ROW 13 : ... .. . ... : ... .. . ... : ... .. . ... : ... .. . ... : ... .. . ...
ROW 14 : A-3 08 . ... : ... .. . ... : ... .. . ... : ... .. . ... : ... .. . ...
ROW 15 : ... .. . ... : ... .. . ... : ... .. . ... : ... .. . ... : ... .. . ...
ROW 16 : ... .. . ... : ... .. . ... : ... .. . ... : ... .. . ... : ... .. . ...
ROW 17 : ... .. . ... : ... .. . ... : ... .. . ... : ... .. . ... : ... .. . ...
ROW 18 : G-3 08 . ... : ... .. . ... : G-3 01 . ... : ... .. . ... : ... .. . ...
ROW 19 : ... .. . ... : ... .. . ... : ... .. . ... : ... .. . ... : ... .. . ...
ROW 1A : ... .. . ... : ... .. . ... : A-3 01 . ... : ... .. . ... : ... .. . ...
ROW 1B : ... .. . ... : ... .. . ... : ... .. . ... : ... .. . ... : ... .. . ...
ROW 1C : E-3 08 . ... : ... .. . ... : C-4 01 . ... : ... .. . ... : ... .. . ...
ROW 1D : ... .. . ... : ... .. . ... : ... .. . ... : ... .. . ... : ... .. . ...
ROW 1E : ... .. . ... : ... .. . ... : ... .. . ... : ... .. . ... : ... .. . ...
ROW 1F : ... .. . ... : ... .. . ... : ... .. . ... : ... .. . ... : ... .. . ...
ROW 20 : D-3 08 . ... : ... .. . ... : ... .. . ... : ... .. . ... : ... .. . ...
ROW 21 : ... .. . ... : ... .. . ... : ... .. . ... : ... .. . ... : ... .. . ...
ROW 22 : ... .. . ... : ... .. . ... : ... .. . ... : ... .. . ... : ... .. . ...
ROW 23 : ... .. . ... : ... .. . ... : ... .. . ... : ... .. . ... : ... .. . ...
ROW 24 : C-3 08 . ... : ... .. . ... : G-3 01 . ... : ... .. . ... : ... .. . ...
ROW 25 : ... .. . ... : ... .. . ... : ... .. . ... : ... .. . ... : ... .. . ...
ROW 26 : ... .. . ... : ... .. . ... : E-3 01 . ... : ... .. . ... : ... .. . ...
ROW 27 : ... .. . ... : ... .. . ... : ... .. . ... : ... .. . ... : ... .. . ...
ROW 28 : E-3 08 . ... : ... .. . ... : D-3 01 . ... : ... .. . ... : ... .. . ...
ROW 29 : ... .. . ... : ... .. . ... : ... .. . ... : ... .. . ... : ... .. . ...
ROW 2A : ... .. . ... : ... .. . ... : ... .. . ... : ... .. . ... : ... .. . ...
ROW 2B : ... .. . ... : ... .. . ... : ... .. . ... : ... .. . ... : ... .. . ...
ROW 2C : A-3 08 . ... : ... .. . ... : ... .. . ... : ... .. . ... : ... .. . ...
ROW 2D : ... .. . ... : ... .. . ... : ... .. . ... : ... .. . ... : ... .. . ...
ROW 2E : ... .. . ... : ... .. . ... : ... .. . ... : ... .. . ... : ... .. . ...
ROW 2F : ... .. . ... : ... .. . ... : ... .. . ... : ... .. . ... : ... .. . ...
ROW 30 : G-3 08 . ... : ... .. . ... : B-3 01 . ... : ... .. . ... : ... .. . ...
ROW 31 : ... .. . ... : ... .. . ... : ... .. . ... : ... .. . ... : ... .. . ...
ROW 32 : ... .. . ... : ... .. . ... : E-3 01 . ... : ... .. . ... : ... .. . ...
ROW 33 : ... .. . ... : ... .. . ... : ... .. . ... : ... .. . ... : ... .. . ...
ROW 34 : D-3 08 . ... : ... .. . ... : D-3 01 . ... : ... .. . ... : ... .. . ...
ROW 35 : ... .. . ... : ... .. . ... : ... .. . ... : ... .. . ... : ... .. . ...
ROW 36 : ... .. . ... : ... .. . ... : E-3 01 . ... : ... .. . ... : ... .. . ...
ROW 37 : ... .. . ... : ... .. . ... : ... .. . ... : ... .. . ... : ... .. . ...
ROW 38 : C-3 08 . ... : ... .. . ... : C-3 01 . ... : ... .. . ... : ... .. . ...
ROW 39 : ... .. . ... : ... .. . ... : ... .. . ... : ... .. . ... : ... .. . ...
ROW 3A : ... .. . ... : ... .. . ... : ... .. . ... : ... .. . ... : ... .. . ...
ROW 3B : ... .. . ... : ... .. . ... : ... .. . ... : ... .. . ... : ... .. . ...
ROW 3C : E-3 08 . ... : ... .. . ... : ... .. . ... : ... .. . ... : ... .. . ...
ROW 3D : ... .. . ... : ... .. . ... : ... .. . ... : ... .. . ... : ... .. . ...
ROW 3E : ... .. . ... : ... .. . ... : ... .. . ... : ... .. . ... : ... .. . ...
ROW 3F : ... .. . ... : ... .. . ... : ... .. . ... : ... .. . ... : ... .. . ...

TRACK  64   6 150 "GasPump"
COLUMNS : 1 1 1 1 1

ORDER 00 : 00 00 00 00 00

PATTERN 00
ROW 00 : C-2 01 . ... : ... .. . ... : A-4 02 . ... : ... .. . ... : ... .. . ...
ROW 01 : ... .. . ... : ... .. . ... : ... .. . ... : ... .. . ... : ... .. . ...
ROW 02 : ... .. . ... : ... .. . ... : ... .. . ... : ... .. . ... : ... .. . ...
ROW 03 : ... .. . ... : ... .. . ... : ... .. . ... : ... .. . ... : ... .. . ...
ROW 04 : ... .. . ... : ... .. . ... : ... .. . ... : ... .. . ... : ... .. . ...
ROW 05 : F-2 01 . ... : ... .. . ... : ... .. . ... : ... .. . ... : ... .. . ...
ROW 06 : ... .. . ... : ... .. . ... : ... .. . ... : ... .. . ... : ... .. . ...
ROW 07 : ... .. . ... : ... .. . ... : ... .. . ... : ... .. . ... : ... .. . ...
ROW 08 : G-2 01 . ... : ... .. . ... : ... .. . ... : ... .. . ... : ... .. . ...
ROW 09 : ... .. . ... : ... .. . ... : ... .. . ... : ... .. . ... : ... .. . ...
ROW 0A : ... .. . ... : ... .. . ... : ... .. . ... : ... .. . ... : ... .. . ...
ROW 0B : ... .. . ... : ... .. . ... : ... .. . ... : ... .. . ... : ... .. . ...
ROW 0C : ... .. . ... : ... .. . ... : G-4 02 . ... : ... .. . ... : ... .. . ...
ROW 0D : F-2 01 . ... : ... .. . ... : ... .. . ... : ... .. . ... : ... .. . ...
ROW 0E : ... .. . ... : ... .. . ... : ... .. . ... : ... .. . ... : ... .. . ...
ROW 0F : ... .. . ... : ... .. . ... : ... .. . ... : ... .. . ... : ... .. . ...
ROW 10 : C-2 01 . ... : ... .. . ... : D-4 02 . ... : ... .. . ... : ... .. . ...
ROW 11 : ... .. . ... : ... .. . ... : ... .. . ... : ... .. . ... : ... .. . ...
ROW 12 : ... .. . ... : ... .. . ... : ... .. . ... : ... .. . ... : ... .. . ...
ROW 13 : ... .. . ... : ... .. . ... : ... .. . ... : ... .. . ... : ... .. . ...
ROW 14 : ... .. . ... : ... .. . ... : ... .. . ... : ... .. . ... : ... .. . ...
ROW 15 : F-2 01 . ... : ... .. . ... : ... .. . ... : ... .. . ... : ... .. . ...
ROW 16 : ... .. . ... : ... .. . ... : ... .. . ... : ... .. . ... : ... .. . ...
ROW 17 : ... .. . ... : ... .. . ... : ... .. . ... : ... .. . ... : ... .. . ...
ROW 18 : G-2 01 . ... : ... .. . ... : ... .. . ... : ... .. . ... : ... .. . ...
ROW 19 : ... .. . ... : ... .. . ... : ... .. . ... : ... .. . ... : ... .. . ...
ROW 1A : ... .. . ... : ... .. . ... : ... .. . ... : ... .. . ... : ... .. . ...
ROW 1B : ... .. . ... : ... .. . ... : ... .. . ... : ... .. . ... : ... .. . ...
ROW 1C : ... .. . ... : ... .. . ... : ... .. . ... : ... .. . ... : ... .. . ...
ROW 1D : F-2 01 . ... : ... .. . ... : ... .. . ... : ... .. . ... : ... .. . ...
ROW 1E : ... .. . ... : ... .. . ... : ... .. . ... : ... .. . ... : ... .. . ...
ROW 1F : ... .. . ... : ... .. . ... : ... .. . ... : ... .. . ... : ... .. . ...
ROW 20 : G-1 01 . ... : ... .. . ... : C-4 02 . ... : ... .. . ... : ... .. . ...
ROW 21 : ... .. . ... : ... .. . ... : ... .. . ... : ... .. . ... : ... .. . ...
ROW 22 : ... .. . ... : ... .. . ... : ... .. . ... : ... .. . ... : ... .. . ...
ROW 23 : ... .. . ... : ... .. . ... : ... .. . ... : ... .. . ... : ... .. . ...
ROW 24 : ... .. . ... : ... .. . ... : ... .. . ... : ... .. . ... : ... .. . ...
ROW 25 : C-2 01 . ... : ... .. . ... : ... .. . ... : ... .. . ... : ... .. . ...
ROW 26 : ... .. . ... : ... .. . ... : ... .. . ... : ... .. . ... : ... .. . ...
ROW 27 : ... .. . ... : ... .. . ... : ... .. . ... : ... .. . ... : ... .. . ...
ROW 28 : D-2 01 . ... : ... .. . ... : ... .. . ... : ... .. . ... : ... .. . ...
ROW 29 : ... .. . ... : ... .. . ... : ... .. . ... : ... .. . ... : ... .. . ...
ROW 2A : ... .. . ... : ... .. . ... : ... .. . ... : ... .. . ... : ... .. . ...
ROW 2B : ... .. . ... : ... .. . ... : ... .. . ... : ... .. . ... : ... .. . ...
ROW 2C : ... .. . ... : ... .. . ... : ... .. . ... : ... .. . ... : ... .. . ...
ROW 2D : C-2 01 . ... : ... .. . ... : F-4 02 . ... : ... .. . ... : ... .. . ...
ROW 2E : ... .. . ... : ... .. . ... : ... .. . ... : ... .. . ... : ... .. . ...
ROW 2F : ... .. . ... : ... .. . ... : ... .. . ... : ... .. . ... : ... .. . ...
ROW 30 : G-1 01 . ... : ... .. . ... : G-4 02 . ... : ... .. . ... : ... .. . ...
ROW 31 : ... .. . ... : ... .. . ... : ... .. . ... : ... .. . ... : ... .. . ...
ROW 32 : ... .. . ... : ... .. . ... : ... .. . ... : ... .. . ... : ... .. . ...
ROW 33 : ... .. . ... : ... .. . ... : ... .. . ... : ... .. . ... : ... .. . ...
ROW 34 : ... .. . ... : ... .. . ... : ... .. . ... : ... .. . ... : ... .. . ...
ROW 35 : C-2 01 . ... : ... .. . ... : ... .. . ... : ... .. . ... : ... .. . ...
ROW 36 : ... .. . ... : ... .. . ... : ... .. . ... : ... .. . ... : ... .. . ...
ROW 37 : ... .. . ... : ... .. . ... : ... .. . ... : ... .. . ... : ... .. . ...
ROW 38 : D-2 01 . ... : ... .. . ... : D-4 02 . ... : ... .. . ... : ... .. . ...
ROW 39 : ... .. . ... : ... .. . ... : ... .. . ... : ... .. . ... : ... .. . ...
ROW 3A : ... .. . ... : ... .. . ... : ... .. . ... : ... .. . ... : ... .. . ...
ROW 3B : ... .. . ... : ... .. . ... : ... .. . ... : ... .. . ... : ... .. . ...
ROW 3C : ... .. . ... : ... .. . ... : ... .. . ... : ... .. . ... : ... .. . ...
ROW 3D : C-2 01 . ... : ... .. . ... : ... .. . ... : ... .. . ... : ... .. . ...
ROW 3E : ... .. . ... : ... .. . ... : ... .. . ... : ... .. . ... : ... .. . ...
ROW 3F : ... .. . ... : ... .. . ... : ... .. . ... : ... .. . ... : ... .. . ...

TRACK  64   6 150 "AbductionCutscene"
COLUMNS : 1 1 1 1 1

ORDER 00 : 00 00 00 00 00

PATTERN 00
ROW 00 : E-3 03 . ... : ... .. . ... : E-3 01 . ... : ... .. . ... : ... .. . ...
ROW 01 : ... .. . ... : ... .. . ... : ... .. . ... : ... .. . ... : ... .. . ...
ROW 02 : ... .. . ... : ... .. . ... : ... .. . ... : ... .. . ... : ... .. . ...
ROW 03 : ... .. . ... : ... .. . ... : ... .. . ... : ... .. . ... : ... .. . ...
ROW 04 : G-3 03 . ... : ... .. . ... : ... .. . ... : ... .. . ... : ... .. . ...
ROW 05 : ... .. . ... : ... .. . ... : ... .. . ... : ... .. . ... : ... .. . ...
ROW 06 : ... .. . ... : ... .. . ... : ... .. . ... : ... .. . ... : ... .. . ...
ROW 07 : ... .. . ... : ... .. . ... : ... .. . ... : ... .. . ... : ... .. . ...
ROW 08 : A#3 03 . ... : ... .. . ... : ... .. . ... : ... .. . ... : ... .. . ...
ROW 09 : ... .. . ... : ... .. . ... : ... .. . ... : ... .. . ... : ... .. . ...
ROW 0A : ... .. . ... : ... .. . ... : ... .. . ... : ... .. . ... : ... .. . ...
ROW 0B : ... .. . ... : ... .. . ... : ... .. . ... : ... .. . ... : ... .. . ...
ROW 0C : G-3 03 . ... : ... .. . ... : ... .. . ... : ... .. . ... : ... .. . ...
ROW 0D : ... .. . ... : ... .. . ... : ... .. . ... : ... .. . ... : ... .. . ...
ROW 0E : ... .. . ... : ... .. . ... : ... .. . ... : ... .. . ... : ... .. . ...
ROW 0F : ... .. . ... : ... .. . ... : ... .. . ... : ... .. . ... : ... .. . ...
ROW 10 : G#3 03 . ... : ... .. . ... : A-3 01 . ... : ... .. . ... : ... .. . ...
ROW 11 : ... .. . ... : ... .. . ... : ... .. . ... : ... .. . ... : ... .. . ...
ROW 12 : ... .. . ... : ... .. . ... : ... .. . ... : ... .. . ... : ... .. . ...
ROW 13 : ... .. . ... : ... .. . ... : ... .. . ... : ... .. . ... : ... .. . ...
ROW 14 : G-3 03 . ... : ... .. . ... : ... .. . ... : ... .. . ... : ... .. . ...
ROW 15 : ... .. . ... : ... .. . ... : ... .. . ... : ... .. . ... : ... .. . ...
ROW 16 : ... .. . ... : ... .. . ... : ... .. . ... : ... .. . ... : ... .. . ...
ROW 17 : ... .. . ... : ... .. . ... : ... .. . ... : ... .. . ... : ... .. . ...
ROW 18 : F-3 03 . ... : ... .. . ... : ... .. . ... : ... .. . ... : ... .. . ...
ROW 19 : ... .. . ... : ... .. . ... : ... .. . ... : ... .. . ... : ... .. . ...
ROW 1A : ... .. . ... : ... .. . ... : ... .. . ... : ... .. . ... : ... .. . ...
ROW 1B : ... .. . ... : ... .. . ... : ... .. . ... : ... .. . ... : ... .. . ...
ROW 1C : E-3 03 . ... : ... .. . ... : ... .. . ... : ... .. . ... : ... .. . ...
ROW 1D : ... .. . ... : ... .. . ... : ... .. . ... : ... .. . ... : ... .. . ...
ROW 1E : ... .. . ... : ... .. . ... : ... .. . ... : ... .. . ... : ... .. . ...
ROW 1F : ... .. . ... : ... .. . ... : ... .. . ... : ... .. . ... : ... .. . ...
ROW 20 : A-3 03 . ... : ... .. . ... : C-3 01 . ... : ... .. . ... : ... .. . ...
ROW 21 : ... .. . ... : ... .. . ... : ... .. . ... : ... .. . ... : ... .. . ...
ROW 22 : ... .. . ... : ... .. . ... : ... .. . ... : ... .. . ... : ... .. . ...
ROW 23 : ... .. . ... : ... .. . ... : ... .. . ... : ... .. . ... : ... .. . ...
ROW 24 : G-3 03 . ... : ... .. . ... : ... .. . ... : ... .. . ... : ... .. . ...
ROW 25 : ... .. . ... : ... .. . ... : ... .. . ... : ... .. . ... : ... .. . ...
ROW 26 : ... .. . ... : ... .. . ... : ... .. . ... : ... .. . ... : ... .. . ...
ROW 27 : ... .. . ... : ... .. . ... : ... .. . ... : ... .. . ... : ... .. . ...
ROW 28 : F-3 03 . ... : ... .. . ... : ... .. . ... : ... .. . ... : ... .. . ...
ROW 29 : ... .. . ... : ... .. . ... : ... .. . ... : ... .. . ... : ... .. . ...
ROW 2A : ... .. . ... : ... .. . ... : ... .. . ... : ... .. . ... : ... .. . ...
ROW 2B : ... .. . ... : ... .. . ... : ... .. . ... : ... .. . ... : ... .. . ...
ROW 2C : E-3 03 . ... : ... .. . ... : ... .. . ... : ... .. . ... : ... .. . ...
ROW 2D : ... .. . ... : ... .. . ... : ... .. . ... : ... .. . ... : ... .. . ...
ROW 2E : ... .. . ... : ... .. . ... : ... .. . ... : ... .. . ... : ... .. . ...
ROW 2F : ... .. . ... : ... .. . ... : ... .. . ... : ... .. . ... : ... .. . ...
ROW 30 : D#3 03 . ... : ... .. . ... : F-3 01 . ... : ... .. . ... : ... .. . ...
ROW 31 : ... .. . ... : ... .. . ... : ... .. . ... : ... .. . ... : ... .. . ...
ROW 32 : ... .. . ... : ... .. . ... : ... .. . ... : ... .. . ... : ... .. . ...
ROW 33 : ... .. . ... : ... .. . ... : ... .. . ... : ... .. . ... : ... .. . ...
ROW 34 : D-3 03 . ... : ... .. . ... : ... .. . ... : ... .. . ... : ... .. . ...
ROW 35 : ... .. . ... : ... .. . ... : ... .. . ... : ... .. . ... : ... .. . ...
ROW 36 : ... .. . ... : ... .. . ... : ... .. . ... : ... .. . ... : ... .. . ...
ROW 37 : ... .. . ... : ... .. . ... : ... .. . ... : ... .. . ... : ... .. . ...
ROW 38 : D#3 03 . ... : ... .. . ... : ... .. . ... : ... .. . ... : ... .. . ...
ROW 39 : ... .. . ... : ... .. . ... : ... .. . ... : ... .. . ... : ... .. . ...
ROW 3A : ... .. . ... : ... .. . ... : ... .. . ... : ... .. . ... : ... .. . ...
ROW 3B : ... .. . ... : ... .. . ... : ... .. . ... : ... .. . ... : ... .. . ...
ROW 3C : C#3 03 . ... : ... .. . ... : ... .. . ... : ... .. . ... : ... .. . ...
ROW 3D : ... .. . ... : ... .. . ... : ... .. . ... : ... .. . ... : ... .. . ...
ROW 3E : ... .. . ... : ... .. . ... : ... .. . ... : ... .. . ... : ... .. . ...
ROW 3F : ... .. . ... : ... .. . ... : ... .. . ... : ... .. . ... : ... .. . ...

PATTERN 01
ROW 00 : ... .. . ... : ... .. . ... : G#3 04 . ... : ... .. . ... : ... .. . ...
ROW 01 : ... .. . ... : ... .. . ... : ... .. . ... : ... .. . ... : ... .. . ...
ROW 02 : ... .. . ... : ... .. . ... : ... .. . ... : ... .. . ... : ... .. . ...
ROW 03 : ... .. . ... : ... .. . ... : ... .. . ... : ... .. . ... : ... .. . ...
ROW 04 : ... .. . ... : ... .. . ... : ... .. . ... : ... .. . ... : ... .. . ...
ROW 05 : ... .. . ... : ... .. . ... : ... .. . ... : ... .. . ... : ... .. . ...
ROW 06 : ... .. . ... : ... .. . ... : ... .. . ... : ... .. . ... : ... .. . ...
ROW 07 : ... .. . ... : ... .. . ... : ... .. . ... : ... .. . ... : ... .. . ...
ROW 08 : ... .. . ... : ... .. . ... : ... .. . ... : ... .. . ... : ... .. . ...
ROW 09 : ... .. . ... : ... .. . ... : ... .. . ... : ... .. . ... : ... .. . ...
ROW 0A : ... .. . ... : ... .. . ... : ... .. . ... : ... .. . ... : ... .. . ...
ROW 0B : ... .. . ... : ... .. . ... : ... .. . ... : ... .. . ... : ... .. . ...
ROW 0C : ... .. . ... : ... .. . ... : G-3 04 . ... : ... .. . ... : ... .. . ...
ROW 0D : ... .. . ... : ... .. . ... : ... .. . ... : ... .. . ... : ... .. . ...
ROW 0E : ... .. . ... : ... .. . ... : ... .. . ... : ... .. . ... : ... .. . ...
ROW 0F : ... .. . ... : ... .. . ... : ... .. . ... : ... .. . ... : ... .. . ...
ROW 10 : ... .. . ... : ... .. . ... : E-3 04 . ... : ... .. . ... : ... .. . ...
ROW 11 : ... .. . ... : ... .. . ... : ... .. . ... : ... .. . ... : ... .. . ...
ROW 12 : ... .. . ... : ... .. . ... : F#3 04 . ... : ... .. . ... : ... .. . ...
ROW 13 : ... .. . ... : ... .. . ... : ... .. . ... : ... .. . ... : ... .. . ...
ROW 14 : ... .. . ... : ... .. . ... : G-3 04 . ... : ... .. . ... : ... .. . ...
ROW 15 : ... .. . ... : ... .. . ... : ... .. . ... : ... .. . ... : ... .. . ...
ROW 16 : ... .. . ... : ... .. . ... : ... .. . ... : ... .. . ... : ... .. . ...
ROW 17 : ... .. . ... : ... .. . ... : ... .. . ... : ... .. . ... : ... .. . ...
ROW 18 : ... .. . ... : ... .. . ... : ... .. . ... : ... .. . ... : ... .. . ...
ROW 19 : ... .. . ... : ... .. . ... : ... .. . ... : ... .. . ... : ... .. . ...
ROW 1A : ... .. . ... : ... .. . ... : ... .. . ... : ... .. . ... : ... .. . ...
ROW 1B : ... .. . ... : ... .. . ... : ... .. . ... : ... .. . ... : ... .. . ...
ROW 1C : ... .. . ... : ... .. . ... : G-3 04 . ... : ... .. . ... : ... .. . ...
ROW 1D : ... .. . ... : ... .. . ... : ... .. . ... : ... .. . ... : ... .. . ...
ROW 1E : ... .. . ... : ... .. . ... : ... .. . ... : ... .. . ... : ... .. . ...
ROW 1F : ... .. . ... : ... .. . ... : ... .. . ... : ... .. . ... : ... .. . ...
ROW 20 : ... .. . ... : ... .. . ... : E-3 04 . ... : ... .. . ... : ... .. . ...
ROW 21 : ... .. . ... : ... .. . ... : ... .. . ... : ... .. . ... : ... .. . ...
ROW 22 : ... .. . ... : ... .. . ... : ... .. . ... : ... .. . ... : ... .. . ...
ROW 23 : ... .. . ... : ... .. . ... : ... .. . ... : ... .. . ... : ... .. . ...
ROW 24 : ... .. . ... : ... .. . ... : G-3 04 . ... : ... .. . ... : ... .. . ...
ROW 25 : ... .. . ... : ... .. . ... : ... .. . ... : ... .. . ... : ... .. . ...
ROW 26 : ... .. . ... : ... .. . ... : F-3 04 . ... : ... .. . ... : ... .. . ...
ROW 27 : ... .. . ... : ... .. . ... : ... .. . ... : ... .. . ... : ... .. . ...
ROW 28 : ... .. . ... : ... .. . ... : A-3 04 . ... : ... .. . ... : ... .. . ...
ROW 29 : ... .. . ... : ... .. . ... : ... .. . ... : ... .. . ... : ... .. . ...
ROW 2A : ... .. . ... : ... .. . ... : ... .. . ... : ... .. . ... : ... .. . ...
ROW 2B : ... .. . ... : ... .. . ... : ... .. . ... : ... .. . ... : ... .. . ...
ROW 2C : ... .. . ... : ... .. . ... : ... .. . ... : ... .. . ... : ... .. . ...
ROW 2D : ... .. . ... : ... .. . ... : ... .. . ... : ... .. . ... : ... .. . ...
ROW 2E : ... .. . ... : ... .. . ... : ... .. . ... : ... .. . ... : ... .. . ...
ROW 2F : ... .. . ... : ... .. . ... : ... .. . ... : ... .. . ... : ... .. . ...
ROW 30 : ... .. . ... : ... .. . ... : ... .. . ... : ... .. . ... : ... .. . ...
ROW 31 : ... .. . ... : ... .. . ... : ... .. . ... : ... .. . ... : ... .. . ...
ROW 32 : ... .. . ... : ... .. . ... : ... .. . ... : ... .. . ... : ... .. . ...
ROW 33 : ... .. . ... : ... .. . ... : ... .. . ... : ... .. . ... : ... .. . ...
ROW 34 : ... .. . ... : ... .. . ... : D-3 04 . ... : ... .. . ... : ... .. . ...
ROW 35 : ... .. . ... : ... .. . ... : ... .. . ... : ... .. . ... : ... .. . ...
ROW 36 : ... .. . ... : ... .. . ... : ... .. . ... : ... .. . ... : ... .. . ...
ROW 37 : ... .. . ... : ... .. . ... : ... .. . ... : ... .. . ... : ... .. . ...
ROW 38 : ... .. . ... : ... .. . ... : ... .. . ... : ... .. . ... : ... .. . ...
ROW 39 : ... .. . ... : ... .. . ... : ... .. . ... : ... .. . ... : ... .. . ...
ROW 3A : ... .. . ... : ... .. . ... : ... .. . ... : ... .. . ... : ... .. . ...
ROW 3B : ... .. . ... : ... .. . ... : ... .. . ... : ... .. . ... : ... .. . ...
ROW 3C : ... .. . ... : ... .. . ... : ... .. . ... : ... .. . ... : ... .. . ...
ROW 3D : ... .. . ... : ... .. . ... : ... .. . ... : ... .. . ... : ... .. . ...
ROW 3E : ... .. . ... : ... .. . ... : ... .. . ... : ... .. . ... : ... .. . ...
ROW 3F : ... .. . ... : ... .. . ... : --- 01 . ... : ... .. . ... : ... .. . ...

TRACK  64   6 150 "AlienPump"
COLUMNS : 1 1 1 1 1

ORDER 00 : 00 00 00 00 00

PATTERN 00
ROW 00 : C-4 05 . ... : ... .. . ... : C-3 05 . ... : ... .. . ... : ... .. . ...
ROW 01 : ... .. . ... : ... .. . ... : ... .. . ... : ... .. . ... : ... .. . ...
ROW 02 : ... .. . ... : ... .. . ... : G-3 05 . ... : ... .. . ... : ... .. . ...
ROW 03 : ... .. . ... : ... .. . ... : ... .. . ... : ... .. . ... : ... .. . ...
ROW 04 : C-4 05 . ... : ... .. . ... : A-3 05 . ... : ... .. . ... : ... .. . ...
ROW 05 : ... .. . ... : ... .. . ... : ... .. . ... : ... .. . ... : ... .. . ...
ROW 06 : ... .. . ... : ... .. . ... : G-3 05 . ... : ... .. . ... : ... .. . ...
ROW 07 : ... .. . ... : ... .. . ... : ... .. . ... : ... .. . ... : ... .. . ...
ROW 08 : C-4 05 . ... : ... .. . ... : D-3 05 . ... : ... .. . ... : ... .. . ...
ROW 09 : ... .. . ... : ... .. . ... : ... .. . ... : ... .. . ... : ... .. . ...
ROW 0A : ... .. . ... : ... .. . ... : C-3 05 . ... : ... .. . ... : ... .. . ...
ROW 0B : ... .. . ... : ... .. . ... : ... .. . ... : ... .. . ... : ... .. . ...
ROW 0C : E-4 05 . ... : ... .. . ... : E-3 05 . ... : ... .. . ... : ... .. . ...
ROW 0D : ... .. . ... : ... .. . ... : ... .. . ... : ... .. . ... : ... .. . ...
ROW 0E : ... .. . ... : ... .. . ... : G-3 05 . ... : ... .. . ... : ... .. . ...
ROW 0F : ... .. . ... : ... .. . ... : ... .. . ... : ... .. . ... : ... .. . ...
ROW 10 : F-4 05 . ... : ... .. . ... : A-3 05 . ... : ... .. . ... : ... .. . ...
ROW 11 : ... .. . ... : ... .. . ... : ... .. . ... : ... .. . ... : ... .. . ...
ROW 12 : ... .. . ... : ... .. . ... : A-3 05 . ... : ... .. . ... : ... .. . ...
ROW 13 : ... .. . ... : ... .. . ... : ... .. . ... : ... .. . ... : ... .. . ...
ROW 14 : E-4 05 . ... : ... .. . ... : G-3 05 . ... : ... .. . ... : ... .. . ...
ROW 15 : ... .. . ... : ... .. . ... : ... .. . ... : ... .. . ... : ... .. . ...
ROW 16 : ... .. . ... : ... .. . ... : A-3 05 . ... : ... .. . ... : ... .. . ...
ROW 17 : ... .. . ... : ... .. . ... : ... .. . ... : ... .. . ... : ... .. . ...
ROW 18 : D-4 05 . ... : ... .. . ... : G-3 05 . ... : ... .. . ... : ... .. . ...
ROW 19 : ... .. . ... : ... .. . ... : ... .. . ... : ... .. . ... : ... .. . ...
ROW 1A : ... .. . ... : ... .. . ... : A-3 05 . ... : ... .. . ... : ... .. . ...
ROW 1B : ... .. . ... : ... .. . ... : ... .. . ... : ... .. . ... : ... .. . ...
ROW 1C : C-4 05 . ... : ... .. . ... : D-3 05 . ... : ... .. . ... : ... .. . ...
ROW 1D : ... .. . ... : ... .. . ... : ... .. . ... : ... .. . ... : ... .. . ...
ROW 1E : ... .. . ... : ... .. . ... : C-3 05 . ... : ... .. . ... : ... .. . ...
ROW 1F : ... .. . ... : ... .. . ... : ... .. . ... : ... .. . ... : ... .. . ...
ROW 20 : C-4 05 . ... : ... .. . ... : E-3 05 . ... : ... .. . ... : ... .. . ...
ROW 21 : ... .. . ... : ... .. . ... : ... .. . ... : ... .. . ... : ... .. . ...
ROW 22 : ... .. . ... : ... .. . ... : D-3 05 . ... : ... .. . ... : ... .. . ...
ROW 23 : ... .. . ... : ... .. . ... : ... .. . ... : ... .. . ... : ... .. . ...
ROW 24 : C-4 05 . ... : ... .. . ... : C-3 05 . ... : ... .. . ... : ... .. . ...
ROW 25 : ... .. . ... : ... .. . ... : ... .. . ... : ... .. . ... : ... .. . ...
ROW 26 : ... .. . ... : ... .. . ... : A-3 05 . ... : ... .. . ... : ... .. . ...
ROW 27 : ... .. . ... : ... .. . ... : ... .. . ... : ... .. . ... : ... .. . ...
ROW 28 : C-4 05 . ... : ... .. . ... : G-3 05 . ... : ... .. . ... : ... .. . ...
ROW 29 : ... .. . ... : ... .. . ... : ... .. . ... : ... .. . ... : ... .. . ...
ROW 2A : ... .. . ... : ... .. . ... : G-3 05 . ... : ... .. . ... : ... .. . ...
ROW 2B : ... .. . ... : ... .. . ... : ... .. . ... : ... .. . ... : ... .. . ...
ROW 2C : F-4 05 . ... : ... .. . ... : D-3 05 . ... : ... .. . ... : ... .. . ...
ROW 2D : ... .. . ... : ... .. . ... : ... .. . ... : ... .. . ... : ... .. . ...
ROW 2E : ... .. . ... : ... .. . ... : C-3 05 . ... : ... .. . ... : ... .. . ...
ROW 2F : ... .. . ... : ... .. . ... : ... .. . ... : ... .. . ... : ... .. . ...
ROW 30 : G-4 05 . ... : ... .. . ... : E-3 05 . ... : ... .. . ... : ... .. . ...
ROW 31 : ... .. . ... : ... .. . ... : ... .. . ... : ... .. . ... : ... .. . ...
ROW 32 : ... .. . ... : ... .. . ... : G-3 05 . ... : ... .. . ... : ... .. . ...
ROW 33 : ... .. . ... : ... .. . ... : ... .. . ... : ... .. . ... : ... .. . ...
ROW 34 : F-4 05 . ... : ... .. . ... : A-3 05 . ... : ... .. . ... : ... .. . ...
ROW 35 : ... .. . ... : ... .. . ... : ... .. . ... : ... .. . ... : ... .. . ...
ROW 36 : ... .. . ... : ... .. . ... : C-3 05 . ... : ... .. . ... : ... .. . ...
ROW 37 : ... .. . ... : ... .. . ... : ... .. . ... : ... .. . ... : ... .. . ...
ROW 38 : G-4 05 . ... : ... .. . ... : D-3 05 . ... : ... .. . ... : ... .. . ...
ROW 39 : ... .. . ... : ... .. . ... : ... .. . ... : ... .. . ... : ... .. . ...
ROW 3A : ... .. . ... : ... .. . ... : C-3 05 . ... : ... .. . ... : ... .. . ...
ROW 3B : ... .. . ... : ... .. . ... : ... .. . ... : ... .. . ... : ... .. . ...
ROW 3C : D-4 05 . ... : ... .. . ... : A-3 05 . ... : ... .. . ... : ... .. . ...
ROW 3D : ... .. . ... : ... .. . ... : ... .. . ... : ... .. . ... : ... .. . ...
ROW 3E : ... .. . ... : ... .. . ... : C-3 05 . ... : ... .. . ... : ... .. . ...
ROW 3F : ... .. . ... : ... .. . ... : ... .. . ... : ... .. . ... : ... .. . ...

PATTERN 01
ROW 00 : === .. . ... : ... .. . ... : === .. . ... : ... .. . ... : ... .. . ...
ROW 01 : ... .. . ... : ... .. . ... : ... .. . ... : ... .. . ... : ... .. . ...
ROW 02 : ... .. . ... : ... .. . ... : ... .. . ... : ... .. . ... : ... .. . ...
ROW 03 : ... .. . ... : ... .. . ... : ... .. . ... : ... .. . ... : ... .. . ...
ROW 04 : G-2 05 . ... : ... .. . ... : ... .. . ... : ... .. . ... : ... .. . ...
ROW 05 : ... .. . ... : ... .. . ... : ... .. . ... : ... .. . ... : ... .. . ...
ROW 06 : ... .. . ... : ... .. . ... : ... .. . ... : ... .. . ... : ... .. . ...
ROW 07 : ... .. . ... : ... .. . ... : ... .. . ... : ... .. . ... : ... .. . ...
ROW 08 : ... .. . ... : ... .. . ... : ... .. . ... : ... .. . ... : ... .. . ...
ROW 09 : ... .. . ... : ... .. . ... : ... .. . ... : ... .. . ... : ... .. . ...
ROW 0A : ... .. . ... : ... .. . ... : ... .. . ... : ... .. . ... : ... .. . ...
ROW 0B : ... .. . ... : ... .. . ... : ... .. . ... : ... .. . ... : ... .. . ...
ROW 0C : G-2 05 . ... : ... .. . ... : ... .. . ... : ... .. . ... : ... .. . ...
ROW 0D : ... .. . ... : ... .. . ... : ... .. . ... : ... .. . ... : ... .. . ...
ROW 0E : ... .. . ... : ... .. . ... : ... .. . ... : ... .. . ... : ... .. . ...
ROW 0F : ... .. . ... : ... .. . ... : ... .. . ... : ... .. . ... : ... .. . ...
ROW 10 : G-2 05 . ... : ... .. . ... : ... .. . ... : ... .. . ... : ... .. . ...
ROW 11 : ... .. . ... : ... .. . ... : ... .. . ... : ... .. . ... : ... .. . ...
ROW 12 : ... .. . ... : ... .. . ... : ... .. . ... : ... .. . ... : ... .. . ...
ROW 13 : ... .. . ... : ... .. . ... : ... .. . ... : ... .. . ... : ... .. . ...
ROW 14 : G-2 05 . ... : ... .. . ... : ... .. . ... : ... .. . ... : ... .. . ...
ROW 15 : ... .. . ... : ... .. . ... : ... .. . ... : ... .. . ... : ... .. . ...
ROW 16 : ... .. . ... : ... .. . ... : ... .. . ... : ... .. . ... : ... .. . ...
ROW 17 : ... .. . ... : ... .. . ... : ... .. . ... : ... .. . ... : ... .. . ...
ROW 18 : F-2 05 . ... : ... .. . ... : ... .. . ... : ... .. . ... : ... .. . ...
ROW 19 : ... .. . ... : ... .. . ... : ... .. . ... : ... .. . ... : ... .. . ...
ROW 1A : ... .. . ... : ... .. . ... : ... .. . ... : ... .. . ... : ... .. . ...
ROW 1B : ... .. . ... : ... .. . ... : ... .. . ... : ... .. . ... : ... .. . ...
ROW 1C : ... .. . ... : ... .. . ... : ... .. . ... : ... .. . ... : ... .. . ...
ROW 1D : ... .. . ... : ... .. . ... : ... .. . ... : ... .. . ... : ... .. . ...
ROW 1E : ... .. . ... : ... .. . ... : ... .. . ... : ... .. . ... : ... .. . ...
ROW 1F : ... .. . ... : ... .. . ... : ... .. . ... : ... .. . ... : ... .. . ...
ROW 20 : ... .. . ... : ... .. . ... : ... .. . ... : ... .. . ... : ... .. . ...
ROW 21 : ... .. . ... : ... .. . ... : ... .. . ... : ... .. . ... : ... .. . ...
ROW 22 : ... .. . ... : ... .. . ... : ... .. . ... : ... .. . ... : ... .. . ...
ROW 23 : ... .. . ... : ... .. . ... : ... .. . ... : ... .. . ... : ... .. . ...
ROW 24 : D-2 05 . ... : ... .. . ... : ... .. . ... : ... .. . ... : ... .. . ...
ROW 25 : ... .. . ... : ... .. . ... : ... .. . ... : ... .. . ... : ... .. . ...
ROW 26 : ... .. . ... : ... .. . ... : ... .. . ... : ... .. . ... : ... .. . ...
ROW 27 : ... .. . ... : ... .. . ... : ... .. . ... : ... .. . ... : ... .. . ...
ROW 28 : ... .. . ... : ... .. . ... : ... .. . ... : ... .. . ... : ... .. . ...
ROW 29 : ... .. . ... : ... .. . ... : ... .. . ... : ... .. . ... : ... .. . ...
ROW 2A : ... .. . ... : ... .. . ... : ... .. . ... : ... .. . ... : ... .. . ...
ROW 2B : ... .. . ... : ... .. . ... : ... .. . ... : ... .. . ... : ... .. . ...
ROW 2C : ... .. . ... : ... .. . ... : ... .. . ... : ... .. . ... : ... .. . ...
ROW 2D : ... .. . ... : ... .. . ... : ... .. . ... : ... .. . ... : ... .. . ...
ROW 2E : ... .. . ... : ... .. . ... : ... .. . ... : ... .. . ... : ... .. . ...
ROW 2F : ... .. . ... : ... .. . ... : ... .. . ... : ... .. . ... : ... .. . ...
ROW 30 : C-3 05 . ... : ... .. . ... : ... .. . ... : ... .. . ... : ... .. . ...
ROW 31 : ... .. . ... : ... .. . ... : ... .. . ... : ... .. . ... : ... .. . ...
ROW 32 : ... .. . ... : ... .. . ... : ... .. . ... : ... .. . ... : ... .. . ...
ROW 33 : ... .. . ... : ... .. . ... : ... .. . ... : ... .. . ... : ... .. . ...
ROW 34 : ... .. . ... : ... .. . ... : ... .. . ... : ... .. . ... : ... .. . ...
ROW 35 : ... .. . ... : ... .. . ... : ... .. . ... : ... .. . ... : ... .. . ...
ROW 36 : ... .. . ... : ... .. . ... : ... .. . ... : ... .. . ... : ... .. . ...
ROW 37 : ... .. . ... : ... .. . ... : ... .. . ... : ... .. . ... : ... .. . ...
ROW 38 : ... .. . ... : ... .. . ... : ... .. . ... : ... .. . ... : ... .. . ...
ROW 39 : ... .. . ... : ... .. . ... : ... .. . ... : ... .. . ... : ... .. . ...
ROW 3A : ... .. . ... : ... .. . ... : ... .. . ... : ... .. . ... : ... .. . ...
ROW 3B : ... .. . ... : ... .. . ... : ... .. . ... : ... .. . ... : ... .. . ...
ROW 3C : ... .. . ... : ... .. . ... : ... .. . ... : ... .. . ... : ... .. . ...
ROW 3D : ... .. . ... : ... .. . ... : ... .. . ... : ... .. . ... : ... .. . ...
ROW 3E : ... .. . ... : ... .. . ... : ... .. . ... : ... .. . ... : ... .. . ...
ROW 3F : ... .. . ... : ... .. . ... : ... .. . ... : ... .. . ... : ... .. . ...

TRACK  64   6 150 "EndingSpace"
COLUMNS : 1 1 1 1 1

ORDER 00 : 00 00 00 00 00

PATTERN 00
ROW 00 : F-4 01 . ... : A-3 01 . ... : ... .. . ... : ... .. . ... : ... .. . ...
ROW 01 : ... .. . ... : ... .. . ... : ... .. . ... : ... .. . ... : ... .. . ...
ROW 02 : ... .. . ... : ... .. . ... : ... .. . ... : ... .. . ... : ... .. . ...
ROW 03 : ... .. . ... : ... .. . ... : ... .. . ... : ... .. . ... : ... .. . ...
ROW 04 : F-4 01 . ... : ... .. . ... : ... .. . ... : ... .. . ... : ... .. . ...
ROW 05 : ... .. . ... : ... .. . ... : ... .. . ... : ... .. . ... : ... .. . ...
ROW 06 : ... .. . ... : ... .. . ... : ... .. . ... : ... .. . ... : ... .. . ...
ROW 07 : ... .. . ... : ... .. . ... : ... .. . ... : ... .. . ... : ... .. . ...
ROW 08 : A#4 01 . ... : ... .. . ... : ... .. . ... : ... .. . ... : ... .. . ...
ROW 09 : ... .. . ... : ... .. . ... : ... .. . ... : ... .. . ... : ... .. . ...
ROW 0A : ... .. . ... : ... .. . ... : ... .. . ... : ... .. . ... : ... .. . ...
ROW 0B : ... .. . ... : ... .. . ... : ... .. . ... : ... .. . ... : ... .. . ...
ROW 0C : C-5 01 . ... : F-3 01 . ... : ... .. . ... : ... .. . ... : ... .. . ...
ROW 0D : ... .. . ... : ... .. . ... : ... .. . ... : ... .. . ... : ... .. . ...
ROW 0E : ... .. . ... : ... .. . ... : ... .. . ... : ... .. . ... : ... .. . ...
ROW 0F : ... .. . ... : ... .. . ... : ... .. . ... : ... .. . ... : ... .. . ...
ROW 10 : ... .. . ... : ... .. . ... : ... .. . ... : ... .. . ... : ... .. . ...
ROW 11 : ... .. . ... : ... .. . ... : ... .. . ... : ... .. . ... : ... .. . ...
ROW 12 : ... .. . ... : ... .. . ... : ... .. . ... : ... .. . ... : ... .. . ...
ROW 13 : ... .. . ... : ... .. . ... : ... .. . ... : ... .. . ... : ... .. . ...
ROW 14 : C-5 01 . ... : ... .. . ... : ... .. . ... : ... .. . ... : ... .. . ...
ROW 15 : ... .. . ... : ... .. . ... : ... .. . ... : ... .. . ... : ... .. . ...
ROW 16 : ... .. . ... : ... .. . ... : ... .. . ... : ... .. . ... : ... .. . ...
ROW 17 : ... .. . ... : ... .. . ... : ... .. . ... : ... .. . ... : ... .. . ...
ROW 18 : ... .. . ... : ... .. . ... : ... .. . ... : ... .. . ... : ... .. . ...
ROW 19 : ... .. . ... : ... .. . ... : ... .. . ... : ... .. . ... : ... .. . ...
ROW 1A : ... .. . ... : ... .. . ... : ... .. . ... : ... .. . ... : ... .. . ...
ROW 1B : ... .. . ... : ... .. . ... : ... .. . ... : ... .. . ... : ... .. . ...
ROW 1C : C-5 01 . ... : F-3 01 . ... : ... .. . ... : ... .. . ... : ... .. . ...
ROW 1D : ... .. . ... : ... .. . ... : ... .. . ... : ... .. . ... : ... .. . ...
ROW 1E : ... .. . ... : ... .. . ... : ... .. . ... : ... .. . ... : ... .. . ...
ROW 1F : ... .. . ... : ... .. . ... : ... .. . ... : ... .. . ... : ... .. . ...
ROW 20 : A#4 01 . ... : D-3 01 . ... : ... .. . ... : ... .. . ... : ... .. . ...
ROW 21 : ... .. . ... : ... .. . ... : ... .. . ... : ... .. . ... : ... .. . ...
ROW 22 : ... .. . ... : ... .. . ... : ... .. . ... : ... .. . ... : ... .. . ...
ROW 23 : ... .. . ... : ... .. . ... : ... .. . ... : ... .. . ... : ... .. . ...
ROW 24 : E-4 01 . ... : ... .. . ... : ... .. . ... : ... .. . ... : ... .. . ...
ROW 25 : ... .. . ... : ... .. . ... : ... .. . ... : ... .. . ... : ... .. . ...
ROW 26 : ... .. . ... : ... .. . ... : ... .. . ... : ... .. . ... : ... .. . ...
ROW 27 : ... .. . ... : ... .. . ... : ... .. . ... : ... .. . ... : ... .. . ...
ROW 28 : F-4 01 . ... : C-3 01 . ... : ... .. . ... : ... .. . ... : ... .. . ...
ROW 29 : ... .. . ... : ... .. . ... : ... .. . ... : ... .. . ... : ... .. . ...
ROW 2A : ... .. . ... : ... .. . ... : ... .. . ... : ... .. . ... : ... .. . ...
ROW 2B : ... .. . ... : ... .. . ... : ... .. . ... : ... .. . ... : ... .. . ...
ROW 2C : ... .. . ... : ... .. . ... : ... .. . ... : ... .. . ... : ... .. . ...
ROW 2D : ... .. . ... : ... .. . ... : ... .. . ... : ... .. . ... : ... .. . ...
ROW 2E : ... .. . ... : ... .. . ... : ... .. . ... : ... .. . ... : ... .. . ...
ROW 2F : ... .. . ... : ... .. . ... : ... .. . ... : ... .. . ... : ... .. . ...
ROW 30 : A#4 01 . ... : F-3 01 . ... : ... .. . ... : ... .. . ... : ... .. . ...
ROW 31 : ... .. . ... : ... .. . ... : ... .. . ... : ... .. . ... : ... .. . ...
ROW 32 : ... .. . ... : ... .. . ... : ... .. . ... : ... .. . ... : ... .. . ...
ROW 33 : ... .. . ... : ... .. . ... : ... .. . ... : ... .. . ... : ... .. . ...
ROW 34 : A-4 01 . ... : ... .. . ... : ... .. . ... : ... .. . ... : ... .. . ...
ROW 35 : ... .. . ... : ... .. . ... : ... .. . ... : ... .. . ... : ... .. . ...
ROW 36 : ... .. . ... : ... .. . ... : ... .. . ... : ... .. . ... : ... .. . ...
ROW 37 : ... .. . ... : ... .. . ... : ... .. . ... : ... .. . ... : ... .. . ...
ROW 38 : G-4 01 . ... : D-3 01 . ... : ... .. . ... : ... .. . ... : ... .. . ...
ROW 39 : ... .. . ... : ... .. . ... : ... .. . ... : ... .. . ... : ... .. . ...
ROW 3A : ... .. . ... : ... .. . ... : ... .. . ... : ... .. . ... : ... .. . ...
ROW 3B : ... .. . ... : ... .. . ... : ... .. . ... : ... .. . ... : ... .. . ...
ROW 3C : C-5 01 . ... : ... .. . ... : ... .. . ... : ... .. . ... : ... .. . ...
ROW 3D : ... .. . ... : ... .. . ... : ... .. . ... : ... .. . ... : ... .. . ...
ROW 3E : ... .. . ... : ... .. . ... : ... .. . ... : ... .. . ... : ... .. . ...
ROW 3F : ... .. . ... : ... .. . ... : ... .. . ... : ... .. . ... : ... .. . ...

TRACK  64   6 150 "EndingScroll"
COLUMNS : 1 1 1 1 1

ORDER 00 : 00 00 00 00 00

PATTERN 00
ROW 00 : G-3 06 . ... : ... .. . ... : ... .. . ... : ... .. . ... : ... .. . ...
ROW 01 : ... .. . ... : ... .. . ... : ... .. . ... : ... .. . ... : ... .. . ...
ROW 02 : ... .. . ... : ... .. . ... : ... .. . ... : ... .. . ... : ... .. . ...
ROW 03 : ... .. . ... : ... .. . ... : ... .. . ... : ... .. . ... : ... .. . ...
ROW 04 : G-3 06 . ... : ... .. . ... : ... .. . ... : ... .. . ... : ... .. . ...
ROW 05 : ... .. . ... : ... .. . ... : ... .. . ... : ... .. . ... : ... .. . ...
ROW 06 : ... .. . ... : ... .. . ... : ... .. . ... : ... .. . ... : ... .. . ...
ROW 07 : ... .. . ... : ... .. . ... : ... .. . ... : ... .. . ... : ... .. . ...
ROW 08 : G-3 06 . ... : ... .. . ... : ... .. . ... : ... .. . ... : ... .. . ...
ROW 09 : ... .. . ... : ... .. . ... : ... .. . ... : ... .. . ... : ... .. . ...
ROW 0A : ... .. . ... : ... .. . ... : ... .. . ... : ... .. . ... : ... .. . ...
ROW 0B : ... .. . ... : ... .. . ... : ... .. . ... : ... .. . ... : ... .. . ...
ROW 0C : G-3 06 . ... : ... .. . ... : ... .. . ... : ... .. . ... : ... .. . ...
ROW 0D : ... .. . ... : ... .. . ... : ... .. . ... : ... .. . ... : ... .. . ...
ROW 0E : ... .. . ... : ... .. . ... : ... .. . ... : ... .. . ... : ... .. . ...
ROW 0F : ... .. . ... : ... .. . ... : ... .. . ... : ... .. . ... : ... .. . ...
ROW 10 : F-3 06 . ... : ... .. . ... : ... .. . ... : ... .. . ... : ... .. . ...
ROW 11 : ... .. . ... : ... .. . ... : ... .. . ... : ... .. . ... : ... .. . ...
ROW 12 : ... .. . ... : ... .. . ... : ... .. . ... : ... .. . ... : ... .. . ...
ROW 13 : ... .. . ... : ... .. . ... : ... .. . ... : ... .. . ... : ... .. . ...
ROW 14 : C-3 06 . ... : ... .. . ... : ... .. . ... : ... .. . ... : ... .. . ...
ROW 15 : ... .. . ... : ... .. . ... : ... .. . ... : ... .. . ... : ... .. . ...
ROW 16 : ... .. . ... : ... .. . ... : ... .. . ... : ... .. . ... : ... .. . ...
ROW 17 : ... .. . ... : ... .. . ... : ... .. . ... : ... .. . ... : ... .. . ...
ROW 18 : C-3 06 . ... : ... .. . ... : ... .. . ... : ... .. . ... : ... .. . ...
ROW 19 : ... .. . ... : ... .. . ... : ... .. . ... : ... .. . ... : ... .. . ...
ROW 1A : ... .. . ... : ... .. . ... : ... .. . ... : ... .. . ... : ... .. . ...
ROW 1B : ... .. . ... : ... .. . ... : ... .. . ... : ... .. . ... : ... .. . ...
ROW 1C : C-3 06 . ... : ... .. . ... : ... .. . ... : ... .. . ... : ... .. . ...
ROW 1D : ... .. . ... : ... .. . ... : ... .. . ... : ... .. . ... : ... .. . ...
ROW 1E : ... .. . ... : ... .. . ... : ... .. . ... : ... .. . ... : ... .. . ...
ROW 1F : ... .. . ... : ... .. . ... : ... .. . ... : ... .. . ... : ... .. . ...
ROW 20 : C-3 06 . ... : ... .. . ... : ... .. . ... : ... .. . ... : ... .. . ...
ROW 21 : ... .. . ... : ... .. . ... : ... .. . ... : ... .. . ... : ... .. . ...
ROW 22 : ... .. . ... : ... .. . ... : ... .. . ... : ... .. . ... : ... .. . ...
ROW 23 : ... .. . ... : ... .. . ... : ... .. . ... : ... .. . ... : ... .. . ...
ROW 24 : F-3 06 . ... : ... .. . ... : ... .. . ... : ... .. . ... : ... .. . ...
ROW 25 : ... .. . ... : ... .. . ... : ... .. . ... : ... .. . ... : ... .. . ...
ROW 26 : ... .. . ... : ... .. . ... : ... .. . ... : ... .. . ... : ... .. . ...
ROW 27 : ... .. . ... : ... .. . ... : ... .. . ... : ... .. . ... : ... .. . ...
ROW 28 : G-3 06 . ... : ... .. . ... : ... .. . ... : ... .. . ... : ... .. . ...
ROW 29 : ... .. . ... : ... .. . ... : ... .. . ... : ... .. . ... : ... .. . ...
ROW 2A : ... .. . ... : ... .. . ... : ... .. . ... : ... .. . ... : ... .. . ...
ROW 2B : ... .. . ... : ... .. . ... : ... .. . ... : ... .. . ... : ... .. . ...
ROW 2C : A-3 06 . ... : ... .. . ... : ... .. . ... : ... .. . ... : ... .. . ...
ROW 2D : ... .. . ... : ... .. . ... : ... .. . ... : ... .. . ... : ... .. . ...
ROW 2E : ... .. . ... : ... .. . ... : ... .. . ... : ... .. . ... : ... .. . ...
ROW 2F : ... .. . ... : ... .. . ... : ... .. . ... : ... .. . ... : ... .. . ...
ROW 30 : G-3 06 . ... : ... .. . ... : ... .. . ... : ... .. . ... : ... .. . ...
ROW 31 : ... .. . ... : ... .. . ... : ... .. . ... : ... .. . ... : ... .. . ...
ROW 32 : ... .. . ... : ... .. . ... : ... .. . ... : ... .. . ... : ... .. . ...
ROW 33 : ... .. . ... : ... .. . ... : ... .. . ... : ... .. . ... : ... .. . ...
ROW 34 : A-3 06 . ... : ... .. . ... : ... .. . ... : ... .. . ... : ... .. . ...
ROW 35 : ... .. . ... : ... .. . ... : ... .. . ... : ... .. . ... : ... .. . ...
ROW 36 : ... .. . ... : ... .. . ... : ... .. . ... : ... .. . ... : ... .. . ...
ROW 37 : ... .. . ... : ... .. . ... : ... .. . ... : ... .. . ... : ... .. . ...
ROW 38 : A-3 06 . ... : ... .. . ... : ... .. . ... : ... .. . ... : ... .. . ...
ROW 39 : ... .. . ... : ... .. . ... : ... .. . ... : ... .. . ... : ... .. . ...
ROW 3A : ... .. . ... : ... .. . ... : ... .. . ... : ... .. . ... : ... .. . ...
ROW 3B : ... .. . ... : ... .. . ... : ... .. . ... : ... .. . ... : ... .. . ...
ROW 3C : D-3 06 . ... : ... .. . ... : ... .. . ... : ... .. . ... : ... .. . ...
ROW 3D : ... .. . ... : ... .. . ... : ... .. . ... : ... .. . ... : ... .. . ...
ROW 3E : ... .. . ... : ... .. . ... : ... .. . ... : ... .. . ... : ... .. . ...
ROW 3F : ... .. . ... : ... .. . ... : ... .. . ... : ... .. . ... : ... .. . ...

TRACK  64   6 150 "AscentinOfZarkaq"
COLUMNS : 1 1 1 1 1

ORDER 00 : 00 00 00 00 00
ORDER 01 : 00 01 00 00 00

PATTERN 00
ROW 00 : A-2 06 . ... : ... .. . ... : ... .. . ... : 4-# 02 . ... : ... .. . ...
ROW 01 : ... .. . ... : ... .. . ... : ... .. . ... : ... .. . ... : ... .. . ...
ROW 02 : ... .. . ... : === .. . ... : ... .. . ... : ... .. . ... : ... .. . ...
ROW 03 : ... .. . ... : ... .. . ... : ... .. . ... : ... .. . ... : ... .. . ...
ROW 04 : E-3 06 . ... : ... .. . ... : ... .. . ... : ... .. . ... : ... .. . ...
ROW 05 : ... .. . ... : ... .. . ... : ... .. . ... : ... .. . ... : ... .. . ...
ROW 06 : ... .. . ... : ... .. . ... : ... .. . ... : ... .. . ... : ... .. . ...
ROW 07 : ... .. . ... : ... .. . ... : ... .. . ... : ... .. . ... : ... .. . ...
ROW 08 : C-3 06 . ... : ... .. . ... : ... .. . ... : ... .. . ... : ... .. . ...
ROW 09 : ... .. . ... : ... .. . ... : ... .. . ... : ... .. . ... : ... .. . ...
ROW 0A : ... .. . ... : ... .. . ... : ... .. . ... : ... .. . ... : ... .. . ...
ROW 0B : ... .. . ... : ... .. . ... : ... .. . ... : ... .. . ... : ... .. . ...
ROW 0C : D-3 06 . ... : ... .. . ... : ... .. . ... : 5-# 02 . ... : ... .. . ...
ROW 0D : ... .. . ... : ... .. . ... : ... .. . ... : ... .. . ... : ... .. . ...
ROW 0E : ... .. . ... : ... .. . ... : ... .. . ... : ... .. . ... : ... .. . ...
ROW 0F : ... .. . ... : ... .. . ... : ... .. . ... : ... .. . ... : ... .. . ...
ROW 10 : C-3 06 . ... : --- .. . ... : ... .. . ... : ... .. . ... : ... .. . ...
ROW 11 : ... .. . ... : ... .. . ... : ... .. . ... : ... .. . ... : ... .. . ...
ROW 12 : ... .. . ... : ... .. . ... : ... .. . ... : ... .. . ... : ... .. . ...
ROW 13 : ... .. . ... : ... .. . ... : ... .. . ... : ... .. . ... : ... .. . ...
ROW 14 : B-2 06 . ... : ... .. . ... : ... .. . ... : ... .. . ... : ... .. . ...
ROW 15 : ... .. . ... : ... .. . ... : ... .. . ... : ... .. . ... : ... .. . ...
ROW 16 : ... .. . ... : ... .. . ... : ... .. . ... : ... .. . ... : ... .. . ...
ROW 17 : ... .. . ... : ... .. . ... : ... .. . ... : ... .. . ... : ... .. . ...
ROW 18 : A-2 06 . ... : ... .. . ... : ... .. . ... : 5-# 02 . ... : ... .. . ...
ROW 19 : ... .. . ... : ... .. . ... : ... .. . ... : ... .. . ... : ... .. . ...
ROW 1A : ... .. . ... : ... .. . ... : ... .. . ... : ... .. . ... : ... .. . ...
ROW 1B : ... .. . ... : ... .. . ... : ... .. . ... : ... .. . ... : ... .. . ...
ROW 1C : A-2 06 . ... : ... .. . ... : ... .. . ... : 5-# 02 . ... : ... .. . ...
ROW 1D : ... .. . ... : ... .. . ... : ... .. . ... : ... .. . ... : ... .. . ...
ROW 1E : ... .. . ... : ... .. . ... : ... .. . ... : ... .. . ... : ... .. . ...
ROW 1F : ... .. . ... : ... .. . ... : ... .. . ... : ... .. . ... : ... .. . ...
ROW 20 : C-3 06 . ... : ... .. . ... : ... .. . ... : ... .. . ... : ... .. . ...
ROW 21 : ... .. . ... : ... .. . ... : ... .. . ... : ... .. . ... : ... .. . ...
ROW 22 : ... .. . ... : ... .. . ... : ... .. . ... : ... .. . ... : ... .. . ...
ROW 23 : ... .. . ... : ... .. . ... : ... .. . ... : ... .. . ... : ... .. . ...
ROW 24 : D-3 06 . ... : ... .. . ... : ... .. . ... : 4-# 02 . ... : ... .. . ...
ROW 25 : ... .. . ... : ... .. . ... : ... .. . ... : ... .. . ... : ... .. . ...
ROW 26 : ... .. . ... : ... .. . ... : ... .. . ... : ... .. . ... : ... .. . ...
ROW 27 : ... .. . ... : ... .. . ... : ... .. . ... : ... .. . ... : ... .. . ...
ROW 28 : C-3 06 . ... : ... .. . ... : ... .. . ... : ... .. . ... : ... .. . ...
ROW 29 : ... .. . ... : ... .. . ... : ... .. . ... : ... .. . ... : ... .. . ...
ROW 2A : ... .. . ... : ... .. . ... : ... .. . ... : ... .. . ... : ... .. . ...
ROW 2B : ... .. . ... : ... .. . ... : ... .. . ... : ... .. . ... : ... .. . ...
ROW 2C : B-2 06 . ... : ... .. . ... : ... .. . ... : 5-# 02 . ... : ... .. . ...
ROW 2D : ... .. . ... : ... .. . ... : ... .. . ... : ... .. . ... : ... .. . ...
ROW 2E : ... .. . ... : ... .. . ... : ... .. . ... : ... .. . ... : ... .. . ...
ROW 2F : ... .. . ... : ... .. . ... : ... .. . ... : ... .. . ... : ... .. . ...
ROW 30 : A-2 06 . ... : ... .. . ... : ... .. . ... : ... .. . ... : ... .. . ...
ROW 31 : ... .. . ... : ... .. . ... : ... .. . ... : ... .. . ... : ... .. . ...
ROW 32 : ... .. . ... : ... .. . ... : ... .. . ... : ... .. . ... : ... .. . ...
ROW 33 : ... .. . ... : ... .. . ... : ... .. . ... : ... .. . ... : ... .. . ...
ROW 34 : E-3 06 . ... : ... .. . ... : ... .. . ... : ... .. . ... : ... .. . ...
ROW 35 : ... .. . ... : ... .. . ... : ... .. . ... : ... .. . ... : ... .. . ...
ROW 36 : ... .. . ... : ... .. . ... : ... .. . ... : ... .. . ... : ... .. . ...
ROW 37 : ... .. . ... : ... .. . ... : ... .. . ... : ... .. . ... : ... .. . ...
ROW 38 : D-3 06 . ... : ... .. . ... : ... .. . ... : 4-# 02 . ... : ... .. . ...
ROW 39 : ... .. . ... : ... .. . ... : ... .. . ... : ... .. . ... : ... .. . ...
ROW 3A : ... .. . ... : ... .. . ... : ... .. . ... : ... .. . ... : ... .. . ...
ROW 3B : ... .. . ... : ... .. . ... : ... .. . ... : ... .. . ... : ... .. . ...
ROW 3C : B-2 06 . ... : ... .. . ... : ... .. . ... : ... .. . ... : ... .. . ...
ROW 3D : ... .. . ... : ... .. . ... : ... .. . ... : ... .. . ... : ... .. . ...
ROW 3E : ... .. . ... : ... .. . ... : ... .. . ... : ... .. . ... : ... .. . ...
ROW 3F : ... .. . ... : ... .. . ... : ... .. . ... : ... .. . ... : ... .. . ...

PATTERN 01
ROW 00 : ... .. . ... : ... .. . ... : ... .. . ... : ... .. . ... : ... .. . ...
ROW 01 : ... .. . ... : ... .. . ... : ... .. . ... : ... .. . ... : ... .. . ...
ROW 02 : ... .. . ... : ... .. . ... : ... .. . ... : ... .. . ... : ... .. . ...
ROW 03 : ... .. . ... : ... .. . ... : ... .. . ... : ... .. . ... : ... .. . ...
ROW 04 : ... .. . ... : ... .. . ... : ... .. . ... : ... .. . ... : ... .. . ...
ROW 05 : ... .. . ... : ... .. . ... : ... .. . ... : ... .. . ... : ... .. . ...
ROW 06 : ... .. . ... : ... .. . ... : ... .. . ... : ... .. . ... : ... .. . ...
ROW 07 : ... .. . ... : ... .. . ... : ... .. . ... : ... .. . ... : ... .. . ...
ROW 08 : ... .. . ... : E-2 06 . ... : ... .. . ... : ... .. . ... : ... .. . ...
ROW 09 : ... .. . ... : ... .. . ... : ... .. . ... : ... .. . ... : ... .. . ...
ROW 0A : ... .. . ... : ... .. . ... : ... .. . ... : ... .. . ... : ... .. . ...
ROW 0B : ... .. . ... : ... .. . ... : ... .. . ... : ... .. . ... : ... .. . ...
ROW 0C : ... .. . ... : F-2 06 . ... : ... .. . ... : ... .. . ... : ... .. . ...
ROW 0D : ... .. . ... : ... .. . ... : ... .. . ... : ... .. . ... : ... .. . ...
ROW 0E : ... .. . ... : ... .. . ... : ... .. . ... : ... .. . ... : ... .. . ...
ROW 0F : ... .. . ... : ... .. . ... : ... .. . ... : ... .. . ... : ... .. . ...
ROW 10 : ... .. . ... : C-2 06 . ... : ... .. . ... : ... .. . ... : ... .. . ...
ROW 11 : ... .. . ... : ... .. . ... : ... .. . ... : ... .. . ... : ... .. . ...
ROW 12 : ... .. . ... : ... .. . ... : ... .. . ... : ... .. . ... : ... .. . ...
ROW 13 : ... .. . ... : ... .. . ... : ... .. . ... : ... .. . ... : ... .. . ...
ROW 14 : ... .. . ... : ... .. . ... : ... .. . ... : ... .. . ... : ... .. . ...
ROW 15 : ... .. . ... : ... .. . ... : ... .. . ... : ... .. . ... : ... .. . ...
ROW 16 : ... .. . ... : ... .. . ... : ... .. . ... : ... .. . ... : ... .. . ...
ROW 17 : ... .. . ... : ... .. . ... : ... .. . ... : ... .. . ... : ... .. . ...
ROW 18 : ... .. . ... : ... .. . ... : ... .. . ... : ... .. . ... : ... .. . ...
ROW 19 : ... .. . ... : ... .. . ... : ... .. . ... : ... .. . ... : ... .. . ...
ROW 1A : ... .. . ... : ... .. . ... : ... .. . ... : ... .. . ... : ... .. . ...
ROW 1B : ... .. . ... : ... .. . ... : ... .. . ... : ... .. . ... : ... .. . ...
ROW 1C : ... .. . ... : E-2 06 . ... : ... .. . ... : ... .. . ... : ... .. . ...
ROW 1D : ... .. . ... : ... .. . ... : ... .. . ... : ... .. . ... : ... .. . ...
ROW 1E : ... .. . ... : ... .. . ... : ... .. . ... : ... .. . ... : ... .. . ...
ROW 1F : ... .. . ... : ... .. . ... : ... .. . ... : ... .. . ... : ... .. . ...
ROW 20 : ... .. . ... : ... .. . ... : ... .. . ... : ... .. . ... : ... .. . ...
ROW 21 : ... .. . ... : ... .. . ... : ... .. . ... : ... .. . ... : ... .. . ...
ROW 22 : ... .. . ... : ... .. . ... : ... .. . ... : ... .. . ... : ... .. . ...
ROW 23 : ... .. . ... : ... .. . ... : ... .. . ... : ... .. . ... : ... .. . ...
ROW 24 : ... .. . ... : D-2 06 . ... : ... .. . ... : ... .. . ... : ... .. . ...
ROW 25 : ... .. . ... : ... .. . ... : ... .. . ... : ... .. . ... : ... .. . ...
ROW 26 : ... .. . ... : ... .. . ... : ... .. . ... : ... .. . ... : ... .. . ...
ROW 27 : ... .. . ... : ... .. . ... : ... .. . ... : ... .. . ... : ... .. . ...
ROW 28 : ... .. . ... : ... .. . ... : ... .. . ... : ... .. . ... : ... .. . ...
ROW 29 : ... .. . ... : ... .. . ... : ... .. . ... : ... .. . ... : ... .. . ...
ROW 2A : ... .. . ... : ... .. . ... : ... .. . ... : ... .. . ... : ... .. . ...
ROW 2B : ... .. . ... : ... .. . ... : ... .. . ... : ... .. . ... : ... .. . ...
ROW 2C : ... .. . ... : C-2 06 . ... : ... .. . ... : ... .. . ... : ... .. . ...
ROW 2D : ... .. . ... : ... .. . ... : ... .. . ... : ... .. . ... : ... .. . ...
ROW 2E : ... .. . ... : ... .. . ... : ... .. . ... : ... .. . ... : ... .. . ...
ROW 2F : ... .. . ... : ... .. . ... : ... .. . ... : ... .. . ... : ... .. . ...
ROW 30 : ... .. . ... : ... .. . ... : ... .. . ... : ... .. . ... : ... .. . ...
ROW 31 : ... .. . ... : ... .. . ... : ... .. . ... : ... .. . ... : ... .. . ...
ROW 32 : ... .. . ... : ... .. . ... : ... .. . ... : ... .. . ... : ... .. . ...
ROW 33 : ... .. . ... : ... .. . ... : ... .. . ... : ... .. . ... : ... .. . ...
ROW 34 : ... .. . ... : E-2 06 . ... : ... .. . ... : ... .. . ... : ... .. . ...
ROW 35 : ... .. . ... : ... .. . ... : ... .. . ... : ... .. . ... : ... .. . ...
ROW 36 : ... .. . ... : ... .. . ... : ... .. . ... : ... .. . ... : ... .. . ...
ROW 37 : ... .. . ... : ... .. . ... : ... .. . ... : ... .. . ... : ... .. . ...
ROW 38 : ... .. . ... : F-2 06 . ... : ... .. . ... : ... .. . ... : ... .. . ...
ROW 39 : ... .. . ... : ... .. . ... : ... .. . ... : ... .. . ... : ... .. . ...
ROW 3A : ... .. . ... : ... .. . ... : ... .. . ... : ... .. . ... : ... .. . ...
ROW 3B : ... .. . ... : ... .. . ... : ... .. . ... : ... .. . ... : ... .. . ...
ROW 3C : ... .. . ... : C-2 06 . ... : ... .. . ... : ... .. . ... : ... .. . ...
ROW 3D : ... .. . ... : ... .. . ... : ... .. . ... : ... .. . ... : ... .. . ...
ROW 3E : ... .. . ... : ... .. . ... : ... .. . ... : ... .. . ... : ... .. . ...
ROW 3F : ... .. . ... : ... .. . ... : ... .. . ... : ... .. . ... : ... .. . ...

TRACK  64   8 150 "GasJazz"
COLUMNS : 1 1 1 1 1

ORDER 00 : 00 00 00 00 00
ORDER 01 : 00 00 00 00 00
ORDER 02 : 00 00 01 00 00

PATTERN 00
ROW 00 : D-3 08 . ... : ... .. . ... : D-5 02 . ... : ... .. . ... : ... .. . ...
ROW 01 : ... .. . ... : ... .. . ... : E-5 02 . ... : ... .. . ... : ... .. . ...
ROW 02 : ... .. . ... : ... .. . ... : G-5 02 . ... : ... .. . ... : ... .. . ...
ROW 03 : ... .. . ... : ... .. . ... : A-5 02 . ... : ... .. . ... : ... .. . ...
ROW 04 : F-3 08 . ... : F-3 01 . ... : E-5 02 . ... : ... .. . ... : ... .. . ...
ROW 05 : ... .. . ... : ... .. . ... : E-5 02 . ... : ... .. . ... : ... .. . ...
ROW 06 : ... .. . ... : ... .. . ... : E-5 02 . ... : ... .. . ... : ... .. . ...
ROW 07 : ... .. . ... : ... .. . ... : D-5 02 . ... : ... .. . ... : ... .. . ...
ROW 08 : A-3 08 . ... : C-4 01 . ... : C-5 02 . ... : ... .. . ... : ... .. . ...
ROW 09 : ... .. . ... : ... .. . ... : ... .. . ... : ... .. . ... : ... .. . ...
ROW 0A : ... .. . ... : ... .. . ... : ... .. . ... : ... .. . ... : ... .. . ...
ROW 0B : ... .. . ... : ... .. . ... : ... .. . ... : ... .. . ... : ... .. . ...
ROW 0C : F-3 08 . ... : ... .. . ... : ... .. . ... : ... .. . ... : ... .. . ...
ROW 0D : ... .. . ... : ... .. . ... : ... .. . ... : ... .. . ... : ... .. . ...
ROW 0E : ... .. . ... : ... .. . ... : G-5 02 . ... : ... .. . ... : ... .. . ...
ROW 0F : ... .. . ... : ... .. . ... : E-5 02 . ... : ... .. . ... : ... .. . ...
ROW 10 : G-3 08 . ... : ... .. . ... : D-5 02 . ... : ... .. . ... : ... .. . ...
ROW 11 : ... .. . ... : ... .. . ... : ... .. . ... : ... .. . ... : ... .. . ...
ROW 12 : ... .. . ... : ... .. . ... : E-5 02 . ... : ... .. . ... : ... .. . ...
ROW 13 : ... .. . ... : ... .. . ... : ... .. . ... : ... .. . ... : ... .. . ...
ROW 14 : B-3 08 . ... : B-3 01 . ... : E-5 02 . ... : ... .. . ... : ... .. . ...
ROW 15 : ... .. . ... : ... .. . ... : ... .. . ... : ... .. . ... : ... .. . ...
ROW 16 : ... .. . ... : ... .. . ... : ... .. . ... : ... .. . ... : ... .. . ...
ROW 17 : ... .. . ... : ... .. . ... : A-5 02 . ... : ... .. . ... : ... .. . ...
ROW 18 : D-4 08 . ... : F-4 01 . ... : ... .. . ... : ... .. . ... : ... .. . ...
ROW 19 : ... .. . ... : ... .. . ... : ... .. . ... : ... .. . ... : ... .. . ...
ROW 1A : ... .. . ... : ... .. . ... : G-5 02 . ... : ... .. . ... : ... .. . ...
ROW 1B : ... .. . ... : ... .. . ... : ... .. . ... : ... .. . ... : ... .. . ...
ROW 1C : B-3 08 . ... : ... .. . ... : ... .. . ... : ... .. . ... : ... .. . ...
ROW 1D : ... .. . ... : ... .. . ... : ... .. . ... : ... .. . ... : ... .. . ...
ROW 1E : ... .. . ... : ... .. . ... : ... .. . ... : ... .. . ... : ... .. . ...
ROW 1F : ... .. . ... : ... .. . ... : ... .. . ... : ... .. . ... : ... .. . ...
ROW 20 : C-3 08 . ... : ... .. . ... : E-5 02 . ... : ... .. . ... : ... .. . ...
ROW 21 : ... .. . ... : ... .. . ... : ... .. . ... : ... .. . ... : ... .. . ...
ROW 22 : ... .. . ... : ... .. . ... : C-5 02 . ... : ... .. . ... : ... .. . ...
ROW 23 : ... .. . ... : ... .. . ... : ... .. . ... : ... .. . ... : ... .. . ...
ROW 24 : E-3 08 . ... : E-3 01 . ... : ... .. . ... : ... .. . ... : ... .. . ...
ROW 25 : ... .. . ... : ... .. . ... : ... .. . ... : ... .. . ... : ... .. . ...
ROW 26 : ... .. . ... : ... .. . ... : ... .. . ... : ... .. . ... : ... .. . ...
ROW 27 : ... .. . ... : ... .. . ... : ... .. . ... : ... .. . ... : ... .. . ...
ROW 28 : G-3 08 . ... : B-3 01 . ... : ... .. . ... : ... .. . ... : ... .. . ...
ROW 29 : ... .. . ... : ... .. . ... : ... .. . ... : ... .. . ... : ... .. . ...
ROW 2A : ... .. . ... : ... .. . ... : E-5 02 . ... : ... .. . ... : ... .. . ...
ROW 2B : ... .. . ... : ... .. . ... : D-5 02 . ... : ... .. . ... : ... .. . ...
ROW 2C : E-3 08 . ... : ... .. . ... : C-5 02 . ... : ... .. . ... : ... .. . ...
ROW 2D : ... .. . ... : ... .. . ... : ... .. . ... : ... .. . ... : ... .. . ...
ROW 2E : ... .. . ... : ... .. . ... : E-5 02 . ... : ... .. . ... : ... .. . ...
ROW 2F : ... .. . ... : ... .. . ... : ... .. . ... : ... .. . ... : ... .. . ...
ROW 30 : C-3 08 . ... : ... .. . ... : G-5 02 . ... : ... .. . ... : ... .. . ...
ROW 31 : ... .. . ... : ... .. . ... : ... .. . ... : ... .. . ... : ... .. . ...
ROW 32 : ... .. . ... : ... .. . ... : ... .. . ... : ... .. . ... : ... .. . ...
ROW 33 : ... .. . ... : ... .. . ... : A-5 02 . ... : ... .. . ... : ... .. . ...
ROW 34 : E-3 08 . ... : E-3 01 . ... : G-5 02 . ... : ... .. . ... : ... .. . ...
ROW 35 : ... .. . ... : ... .. . ... : A-5 02 . ... : ... .. . ... : ... .. . ...
ROW 36 : ... .. . ... : ... .. . ... : ... .. . ... : ... .. . ... : ... .. . ...
ROW 37 : ... .. . ... : ... .. . ... : G-5 02 . ... : ... .. . ... : ... .. . ...
ROW 38 : G-3 08 . ... : B-3 01 . ... : ... .. . ... : ... .. . ... : ... .. . ...
ROW 39 : ... .. . ... : ... .. . ... : ... .. . ... : ... .. . ... : ... .. . ...
ROW 3A : ... .. . ... : ... .. . ... : ... .. . ... : ... .. . ... : ... .. . ...
ROW 3B : ... .. . ... : ... .. . ... : ... .. . ... : ... .. . ... : ... .. . ...
ROW 3C : E-3 08 . ... : ... .. . ... : E-5 02 . ... : ... .. . ... : ... .. . ...
ROW 3D : ... .. . ... : ... .. . ... : ... .. . ... : ... .. . ... : ... .. . ...
ROW 3E : ... .. . ... : ... .. . ... : D-5 02 . ... : ... .. . ... : ... .. . ...
ROW 3F : ... .. . ... : ... .. . ... : ... .. . ... : ... .. . ... : ... .. . ...

PATTERN 01
ROW 00 : ... .. . ... : ... .. . ... : D-5 01 . ... : ... .. . ... : ... .. . ...
ROW 01 : ... .. . ... : ... .. . ... : ... .. . ... : ... .. . ... : ... .. . ...
ROW 02 : ... .. . ... : ... .. . ... : ... .. . ... : ... .. . ... : ... .. . ...
ROW 03 : ... .. . ... : ... .. . ... : ... .. . ... : ... .. . ... : ... .. . ...
ROW 04 : ... .. . ... : ... .. . ... : ... .. . ... : ... .. . ... : ... .. . ...
ROW 05 : ... .. . ... : ... .. . ... : ... .. . ... : ... .. . ... : ... .. . ...
ROW 06 : ... .. . ... : ... .. . ... : ... .. . ... : ... .. . ... : ... .. . ...
ROW 07 : ... .. . ... : ... .. . ... : ... .. . ... : ... .. . ... : ... .. . ...
ROW 08 : ... .. . ... : ... .. . ... : E-5 01 . ... : ... .. . ... : ... .. . ...
ROW 09 : ... .. . ... : ... .. . ... : ... .. . ... : ... .. . ... : ... .. . ...
ROW 0A : ... .. . ... : ... .. . ... : ... .. . ... : ... .. . ... : ... .. . ...
ROW 0B : ... .. . ... : ... .. . ... : ... .. . ... : ... .. . ... : ... .. . ...
ROW 0C : ... .. . ... : ... .. . ... : G-5 01 . ... : ... .. . ... : ... .. . ...
ROW 0D : ... .. . ... : ... .. . ... : ... .. . ... : ... .. . ... : ... .. . ...
ROW 0E : ... .. . ... : ... .. . ... : ... .. . ... : ... .. . ... : ... .. . ...
ROW 0F : ... .. . ... : ... .. . ... : ... .. . ... : ... .. . ... : ... .. . ...
ROW 10 : ... .. . ... : ... .. . ... : A-5 01 . ... : ... .. . ... : ... .. . ...
ROW 11 : ... .. . ... : ... .. . ... : ... .. . ... : ... .. . ... : ... .. . ...
ROW 12 : ... .. . ... : ... .. . ... : ... .. . ... : ... .. . ... : ... .. . ...
ROW 13 : ... .. . ... : ... .. . ... : ... .. . ... : ... .. . ... : ... .. . ...
ROW 14 : ... .. . ... : ... .. . ... : ... .. . ... : ... .. . ... : ... .. . ...
ROW 15 : ... .. . ... : ... .. . ... : ... .. . ... : ... .. . ... : ... .. . ...
ROW 16 : ... .. . ... : ... .. . ... : ... .. . ... : ... .. . ... : ... .. . ...
ROW 17 : ... .. . ... : ... .. . ... : ... .. . ... : ... .. . ... : ... .. . ...
ROW 18 : ... .. . ... : ... .. . ... : E-5 01 . ... : ... .. . ... : ... .. . ...
ROW 19 : ... .. . ... : ... .. . ... : ... .. . ... : ... .. . ... : ... .. . ...
ROW 1A : ... .. . ... : ... .. . ... : ... .. . ... : ... .. . ... : ... .. . ...
ROW 1B : ... .. . ... : ... .. . ... : ... .. . ... : ... .. . ... : ... .. . ...
ROW 1C : ... .. . ... : ... .. . ... : D-5 01 . ... : ... .. . ... : ... .. . ...
ROW 1D : ... .. . ... : ... .. . ... : ... .. . ... : ... .. . ... : ... .. . ...
ROW 1E : ... .. . ... : ... .. . ... : ... .. . ... : ... .. . ... : ... .. . ...
ROW 1F : ... .. . ... : ... .. . ... : ... .. . ... : ... .. . ... : ... .. . ...
ROW 20 : ... .. . ... : ... .. . ... : ... .. . ... : ... .. . ... : ... .. . ...
ROW 21 : ... .. . ... : ... .. . ... : ... .. . ... : ... .. . ... : ... .. . ...
ROW 22 : ... .. . ... : ... .. . ... : ... .. . ... : ... .. . ... : ... .. . ...
ROW 23 : ... .. . ... : ... .. . ... : ... .. . ... : ... .. . ... : ... .. . ...
ROW 24 : ... .. . ... : ... .. . ... : C-5 01 . ... : ... .. . ... : ... .. . ...
ROW 25 : ... .. . ... : ... .. . ... : ... .. . ... : ... .. . ... : ... .. . ...
ROW 26 : ... .. . ... : ... .. . ... : ... .. . ... : ... .. . ... : ... .. . ...
ROW 27 : ... .. . ... : ... .. . ... : ... .. . ... : ... .. . ... : ... .. . ...
ROW 28 : ... .. . ... : ... .. . ... : ... .. . ... : ... .. . ... : ... .. . ...
ROW 29 : ... .. . ... : ... .. . ... : ... .. . ... : ... .. . ... : ... .. . ...
ROW 2A : ... .. . ... : ... .. . ... : ... .. . ... : ... .. . ... : ... .. . ...
ROW 2B : ... .. . ... : ... .. . ... : ... .. . ... : ... .. . ... : ... .. . ...
ROW 2C : ... .. . ... : ... .. . ... : D-5 01 . ... : ... .. . ... : ... .. . ...
ROW 2D : ... .. . ... : ... .. . ... : ... .. . ... : ... .. . ... : ... .. . ...
ROW 2E : ... .. . ... : ... .. . ... : ... .. . ... : ... .. . ... : ... .. . ...
ROW 2F : ... .. . ... : ... .. . ... : ... .. . ... : ... .. . ... : ... .. . ...
ROW 30 : ... .. . ... : ... .. . ... : E-5 01 . ... : ... .. . ... : ... .. . ...
ROW 31 : ... .. . ... : ... .. . ... : ... .. . ... : ... .. . ... : ... .. . ...
ROW 32 : ... .. . ... : ... .. . ... : ... .. . ... : ... .. . ... : ... .. . ...
ROW 33 : ... .. . ... : ... .. . ... : ... .. . ... : ... .. . ... : ... .. . ...
ROW 34 : ... .. . ... : ... .. . ... : G-5 01 . ... : ... .. . ... : ... .. . ...
ROW 35 : ... .. . ... : ... .. . ... : ... .. . ... : ... .. . ... : ... .. . ...
ROW 36 : ... .. . ... : ... .. . ... : ... .. . ... : ... .. . ... : ... .. . ...
ROW 37 : ... .. . ... : ... .. . ... : A-5 01 . ... : ... .. . ... : ... .. . ...
ROW 38 : ... .. . ... : ... .. . ... : G-5 01 . ... : ... .. . ... : ... .. . ...
ROW 39 : ... .. . ... : ... .. . ... : A-5 01 . ... : ... .. . ... : ... .. . ...
ROW 3A : ... .. . ... : ... .. . ... : ... .. . ... : ... .. . ... : ... .. . ...
ROW 3B : ... .. . ... : ... .. . ... : ... .. . ... : ... .. . ... : ... .. . ...
ROW 3C : ... .. . ... : ... .. . ... : E-5 01 . ... : ... .. . ... : ... .. . ...
ROW 3D : ... .. . ... : ... .. . ... : ... .. . ... : ... .. . ... : ... .. . ...
ROW 3E : ... .. . ... : ... .. . ... : ... .. . ... : ... .. . ... : ... .. . ...
ROW 3F : ... .. . ... : ... .. . ... : ... .. . ... : ... .. . ... : ... .. . ...

# End of export
